<?xml version="1.0" encoding="UTF-8" standalone="no"?>
<svg
	xmlns:dc="http://purl.org/dc/elements/1.1/"
	xmlns:cc="http://creativecommons.org/ns#"
	xmlns:rdf="http://www.w3.org/1999/02/22-rdf-syntax-ns#"
	xmlns:svg="http://www.w3.org/2000/svg"
	xmlns="http://www.w3.org/2000/svg"
	xmlns:xlink="http://www.w3.org/1999/xlink"
	xmlns:sodipodi="http://sodipodi.sourceforge.net/DTD/sodipodi-0.dtd"
	xmlns:inkscape="http://www.inkscape.org/namespaces/inkscape"
	version="1.0"
	height="200"
	width="200"
	id="svg2"
	sodipodi:version="0.32"
	inkscape:version="0.48.5 r10040"
	sodipodi:docname="ic_launcher.svg"
	inkscape:output_extension="org.inkscape.output.svg.inkscape"
	inkscape:export-filename="ic_launcher.png"
	inkscape:export-xdpi="5.4420452"
	inkscape:export-ydpi="5.4420452">
	<metadata
		id="metadata29">
		<rdf:RDF>
			<cc:Work
				rdf:about="">
				<dc:format>image/svg+xml</dc:format>
				<dc:type
					rdf:resource="http://purl.org/dc/dcmitype/StillImage"/>
			</cc:Work>
		</rdf:RDF>
	</metadata>
	<sodipodi:namedview
		inkscape:window-height="913"
		inkscape:window-width="1270"
		inkscape:pageshadow="2"
		inkscape:pageopacity="0.0"
		guidetolerance="10.0"
		gridtolerance="10.0"
		objecttolerance="10.0"
		borderopacity="1.0"
		bordercolor="#666666"
		pagecolor="#ffffff"
		id="base"
		showgrid="false"
		inkscape:zoom="1.964704"
		inkscape:cx="44.5979"
		inkscape:cy="187.65851"
		inkscape:window-x="543"
		inkscape:window-y="145"
		inkscape:current-layer="svg2"
		inkscape:window-maximized="0"/>
	<title
		id="title4">Example showing a blue circle with 3D highlighting effect
	</title>
	<desc
		id="desc6">Picture of a blue sphere (circle with 3D highlighting)
	</desc>
	<style
		type="text/css"
		id="style8">
		.Border { fill: lightGray; stroke: black; stroke-width: 4; }
		.Label { font-size:24; font-family:Arial; fill:black; }
	</style>
	<defs
		id="defs10">
		<linearGradient
			id="linearGradient15834">
			<stop
				id="stop15842"
				offset="0"
				style="stop-color: rgb(119, 9, 0); stop-opacity: 1;"/>
			<stop
				style="stop-color: rgb(218, 16, 27); stop-opacity: 1;"
				offset="0.5"
				id="stop15848"/>
			<stop
				id="stop15850"
				offset="0.75"
				style="stop-color: rgb(210, 64, 15); stop-opacity: 1;"/>
			<stop
				style="stop-color: rgb(212, 67, 22); stop-opacity: 0.614583;"
				offset="0.9375"
				id="stop15852"/>
			<stop
				style="stop-color: rgb(195, 0, 0); stop-opacity: 0.21875;"
				offset="1"
				id="stop15838"/>
		</linearGradient>
		<linearGradient
			inkscape:collect="always"
			id="linearGradient18791">
			<stop
				style="stop-color: rgb(255, 255, 255); stop-opacity: 1;"
				offset="0"
				id="stop18793"/>
			<stop
				style="stop-color: rgb(255, 255, 255); stop-opacity: 0;"
				offset="1"
				id="stop18795"/>
		</linearGradient>
		<linearGradient
			id="linearGradient3187">
			<stop
				style="stop-color:#081074;stop-opacity:1;"
				offset="0"
				id="stop3189"/>
			<stop
				id="stop3191"
				offset="0.5"
				style="stop-color:#5873c2;stop-opacity:1;"/>
			<stop
				style="stop-color:#0f99d2;stop-opacity:1;"
				offset="0.75"
				id="stop3193"/>
			<stop
				id="stop3290"
				offset="0.9375"
				style="stop-color:#1660d4;stop-opacity:0.6156863;"/>
			<stop
				id="stop3292"
				offset="1"
				style="stop-color:#414cf6;stop-opacity:0.21568628;"/>
		</linearGradient>
		<linearGradient
			inkscape:collect="always"
			id="linearGradient20749">
			<stop
				style="stop-color: rgb(153, 153, 153); stop-opacity: 1;"
				offset="0"
				id="stop20751"/>
			<stop
				style="stop-color: rgb(153, 153, 153); stop-opacity: 0;"
				offset="1"
				id="stop20753"/>
		</linearGradient>
		<radialGradient
			inkscape:collect="always"
			xlink:href="#linearGradient20749"
			id="radialGradient2552"
			gradientUnits="userSpaceOnUse"
			cx="102.14286"
			cy="545.93359"
			fx="102.14286"
			fy="545.93359"
			r="135"/>
		<linearGradient
			inkscape:collect="always"
			xlink:href="#linearGradient3187"
			id="linearGradient2554"
			gradientUnits="userSpaceOnUse"
			x1="154.28572"
			y1="535.2193"
			x2="605.71429"
			y2="535.2193"/>
		<radialGradient
			inkscape:collect="always"
			xlink:href="#linearGradient18791"
			id="radialGradient2556"
			gradientUnits="userSpaceOnUse"
			cx="102.14286"
			cy="545.93359"
			fx="102.14286"
			fy="545.93359"
			r="135"/>
		<radialGradient
			inkscape:collect="always"
			xlink:href="#linearGradient20749"
			id="radialGradient2558"
			gradientUnits="userSpaceOnUse"
			cx="102.14286"
			cy="545.93359"
			fx="102.14286"
			fy="545.93359"
			r="135"/>
		<linearGradient
			inkscape:collect="always"
			xlink:href="#linearGradient3187"
			id="linearGradient2560"
			gradientUnits="userSpaceOnUse"
			x1="154.28572"
			y1="535.2193"
			x2="605.71429"
			y2="535.2193"/>
		<radialGradient
			inkscape:collect="always"
			xlink:href="#linearGradient18791"
			id="radialGradient2562"
			gradientUnits="userSpaceOnUse"
			cx="102.14286"
			cy="545.93359"
			fx="102.14286"
			fy="545.93359"
			r="135"/>
		<radialGradient
			inkscape:collect="always"
			xlink:href="#linearGradient20749"
			id="radialGradient2564"
			gradientUnits="userSpaceOnUse"
			cx="102.14286"
			cy="545.93359"
			fx="102.14286"
			fy="545.93359"
			r="135"/>
		<linearGradient
			inkscape:collect="always"
			xlink:href="#linearGradient3187"
			id="linearGradient2566"
			gradientUnits="userSpaceOnUse"
			x1="154.28572"
			y1="535.2193"
			x2="605.71429"
			y2="535.2193"/>
		<radialGradient
			inkscape:collect="always"
			xlink:href="#linearGradient18791"
			id="radialGradient2568"
			gradientUnits="userSpaceOnUse"
			cx="102.14286"
			cy="545.93359"
			fx="102.14286"
			fy="545.93359"
			r="135"/>
		<radialGradient
			inkscape:collect="always"
			xlink:href="#linearGradient20749"
			id="radialGradient2570"
			gradientUnits="userSpaceOnUse"
			cx="102.14286"
			cy="545.93359"
			fx="102.14286"
			fy="545.93359"
			r="135"/>
		<linearGradient
			inkscape:collect="always"
			xlink:href="#linearGradient3187"
			id="linearGradient2572"
			gradientUnits="userSpaceOnUse"
			x1="154.28572"
			y1="535.2193"
			x2="605.71429"
			y2="535.2193"/>
		<radialGradient
			inkscape:collect="always"
			xlink:href="#linearGradient18791"
			id="radialGradient2574"
			gradientUnits="userSpaceOnUse"
			cx="102.14286"
			cy="545.93359"
			fx="102.14286"
			fy="545.93359"
			r="135"/>
		<radialGradient
			inkscape:collect="always"
			xlink:href="#linearGradient20749"
			id="radialGradient2576"
			gradientUnits="userSpaceOnUse"
			cx="102.14286"
			cy="545.93359"
			fx="102.14286"
			fy="545.93359"
			r="135"/>
		<linearGradient
			inkscape:collect="always"
			xlink:href="#linearGradient3187"
			id="linearGradient2578"
			gradientUnits="userSpaceOnUse"
			x1="154.28572"
			y1="535.2193"
			x2="605.71429"
			y2="535.2193"/>
		<radialGradient
			inkscape:collect="always"
			xlink:href="#linearGradient18791"
			id="radialGradient2580"
			gradientUnits="userSpaceOnUse"
			cx="102.14286"
			cy="545.93359"
			fx="102.14286"
			fy="545.93359"
			r="135"/>
		<radialGradient
			inkscape:collect="always"
			xlink:href="#linearGradient20749"
			id="radialGradient2582"
			gradientUnits="userSpaceOnUse"
			cx="102.14286"
			cy="545.93359"
			fx="102.14286"
			fy="545.93359"
			r="135"/>
		<linearGradient
			inkscape:collect="always"
			xlink:href="#linearGradient15834"
			id="linearGradient2584"
			gradientUnits="userSpaceOnUse"
			x1="154.28572"
			y1="535.2193"
			x2="605.71429"
			y2="535.2193"/>
		<radialGradient
			inkscape:collect="always"
			xlink:href="#linearGradient18791"
			id="radialGradient2586"
			gradientUnits="userSpaceOnUse"
			cx="102.14286"
			cy="545.93359"
			fx="102.14286"
			fy="545.93359"
			r="135"/>
		<linearGradient
			inkscape:collect="always"
			xlink:href="#linearGradient9598"
			id="linearGradient10902-1"
			gradientUnits="userSpaceOnUse"
			gradientTransform="translate(0,-9.6171873e-6)"
			x1="48"
			y1="1052.3622"
			x2="48"
			y2="902.36218"/>
		<linearGradient
			id="linearGradient9598">
			<stop
				id="stop9600"
				style="stop-color:#efaa29"
				offset="0"/>
			<stop
				id="stop9602"
				style="stop-color:#ef2929;stop-opacity:0"
				offset="1"/>
		</linearGradient>
		<linearGradient
			inkscape:collect="always"
			xlink:href="#linearGradient4161"
			id="linearGradient3088"
			gradientUnits="userSpaceOnUse"
			x1="72"
			y1="88"
			x2="72"
			y2="48"/>
		<linearGradient
			id="linearGradient4161">
			<stop
				id="stop4163"
				style="stop-color:#737373;stop-opacity:1"
				offset="0"/>
			<stop
				id="stop4165"
				style="stop-color:#989898;stop-opacity:1"
				offset="1"/>
		</linearGradient>
		<linearGradient
			inkscape:collect="always"
			xlink:href="#color_3_"
			id="linearGradient3085-5"
			gradientUnits="userSpaceOnUse"
			x1="64"
			y1="64"
			x2="64"
			y2="8"/>
		<linearGradient
			x1="84.25"
			y1="128.9995"
			x2="84.25"
			y2="216.5005"
			id="color_3_"
			gradientUnits="userSpaceOnUse">
			<stop
				id="stop48"
				style="stop-color:#d8d8d8;stop-opacity:1"
				offset="0"/>
			<stop
				id="stop50"
				style="stop-color:#f9f9f9;stop-opacity:1"
				offset="1"/>
		</linearGradient>
		<linearGradient
			inkscape:collect="always"
			xlink:href="#linearGradient3700-75"
			id="linearGradient3082-9"
			gradientUnits="userSpaceOnUse"
			x1="24"
			y1="88"
			x2="24"
			y2="48"/>
		<linearGradient
			id="linearGradient3700-75">
			<stop
				id="stop3702-388"
				style="stop-color:#b5b5b5;stop-opacity:1"
				offset="0"/>
			<stop
				id="stop3704-31"
				style="stop-color:#dedede;stop-opacity:1"
				offset="1"/>
		</linearGradient>
		<linearGradient
			inkscape:collect="always"
			xlink:href="#linearGradient3325"
			id="linearGradient3079"
			gradientUnits="userSpaceOnUse"
			x1="24"
			y1="64"
			x2="24"
			y2="8"/>
		<linearGradient
			id="linearGradient3325">
			<stop
				id="stop3327"
				style="stop-color:#f06805;stop-opacity:1"
				offset="0"/>
			<stop
				id="stop3329-8"
				style="stop-color:#ffb03c;stop-opacity:1"
				offset="1"/>
		</linearGradient>
		<linearGradient
			inkscape:collect="always"
			xlink:href="#linearGradient9598"
			id="linearGradient3025"
			gradientUnits="userSpaceOnUse"
			gradientTransform="translate(0,-9.6171873e-6)"
			x1="48"
			y1="1052.3622"
			x2="48"
			y2="902.36218"/>
		<linearGradient
			inkscape:collect="always"
			xlink:href="#linearGradient4161"
			id="linearGradient3029"
			gradientUnits="userSpaceOnUse"
			x1="72"
			y1="88"
			x2="72"
			y2="48"/>
		<linearGradient
			inkscape:collect="always"
			xlink:href="#color_3_"
			id="linearGradient3031"
			gradientUnits="userSpaceOnUse"
			x1="64"
			y1="64"
			x2="64"
			y2="8"/>
		<linearGradient
			inkscape:collect="always"
			xlink:href="#linearGradient3700-75"
			id="linearGradient3033"
			gradientUnits="userSpaceOnUse"
			x1="24"
			y1="88"
			x2="24"
			y2="48"/>
		<linearGradient
			inkscape:collect="always"
			xlink:href="#linearGradient3325"
			id="linearGradient3035"
			gradientUnits="userSpaceOnUse"
			x1="24"
			y1="64"
			x2="24"
			y2="8"/>
		<linearGradient
			inkscape:collect="always"
			xlink:href="#linearGradient4161"
			id="linearGradient3044"
			gradientUnits="userSpaceOnUse"
			x1="72"
			y1="88"
			x2="72"
			y2="48"/>
		<linearGradient
			inkscape:collect="always"
			xlink:href="#color_3_"
			id="linearGradient3046"
			gradientUnits="userSpaceOnUse"
			x1="64"
			y1="64"
			x2="64"
			y2="8"/>
		<linearGradient
			inkscape:collect="always"
			xlink:href="#linearGradient3700-75"
			id="linearGradient3048"
			gradientUnits="userSpaceOnUse"
			x1="24"
			y1="88"
			x2="24"
			y2="48"/>
		<linearGradient
			inkscape:collect="always"
			xlink:href="#linearGradient3325"
			id="linearGradient3050"
			gradientUnits="userSpaceOnUse"
			x1="24"
			y1="64"
			x2="24"
			y2="8"/>
		<linearGradient
			inkscape:collect="always"
			xlink:href="#linearGradient3325"
			id="linearGradient3054"
			gradientUnits="userSpaceOnUse"
			x1="24"
			y1="64"
			x2="24"
			y2="8"
			gradientTransform="matrix(0.6547619,0,0,0.6547619,5.96483,966.36766)"/>
		<linearGradient
			inkscape:collect="always"
			xlink:href="#linearGradient3700-75"
			id="linearGradient3057"
			gradientUnits="userSpaceOnUse"
			x1="24"
			y1="88"
			x2="24"
			y2="48"
			gradientTransform="matrix(0.6547619,0,0,0.6547619,5.96483,966.36766)"/>
		<linearGradient
			inkscape:collect="always"
			xlink:href="#linearGradient4161"
			id="linearGradient3063"
			gradientUnits="userSpaceOnUse"
			x1="72"
			y1="88"
			x2="72"
			y2="48"
			gradientTransform="matrix(0.6547619,0,0,0.6547619,30.461029,991.87401)"/>
		<linearGradient
			id="linearGradient15834-2">
			<stop
				id="stop15842-2"
				offset="0"
				style="stop-color: rgb(119, 9, 0); stop-opacity: 1;"/>
			<stop
				style="stop-color: rgb(218, 16, 27); stop-opacity: 1;"
				offset="0.5"
				id="stop15848-6"/>
			<stop
				id="stop15850-8"
				offset="0.75"
				style="stop-color: rgb(210, 64, 15); stop-opacity: 1;"/>
			<stop
				style="stop-color: rgb(212, 67, 22); stop-opacity: 0.614583;"
				offset="0.9375"
				id="stop15852-9"/>
			<stop
				style="stop-color: rgb(195, 0, 0); stop-opacity: 0.21875;"
				offset="1"
				id="stop15838-8"/>
		</linearGradient>
		<linearGradient
			inkscape:collect="always"
			id="linearGradient18791-2">
			<stop
				style="stop-color: rgb(255, 255, 255); stop-opacity: 1;"
				offset="0"
				id="stop18793-9"/>
			<stop
				style="stop-color: rgb(255, 255, 255); stop-opacity: 0;"
				offset="1"
				id="stop18795-2"/>
		</linearGradient>
		<linearGradient
			id="linearGradient3187-0">
			<stop
				style="stop-color:#081074;stop-opacity:1;"
				offset="0"
				id="stop3189-5"/>
			<stop
				id="stop3191-8"
				offset="0.5"
				style="stop-color:#5873c2;stop-opacity:1;"/>
			<stop
				style="stop-color:#0f99d2;stop-opacity:1;"
				offset="0.75"
				id="stop3193-7"/>
			<stop
				id="stop3290-6"
				offset="0.9375"
				style="stop-color:#1660d4;stop-opacity:0.6156863;"/>
			<stop
				id="stop3292-6"
				offset="1"
				style="stop-color:#414cf6;stop-opacity:0.21568628;"/>
		</linearGradient>
		<linearGradient
			inkscape:collect="always"
			id="linearGradient20749-2">
			<stop
				style="stop-color: rgb(153, 153, 153); stop-opacity: 1;"
				offset="0"
				id="stop20751-8"/>
			<stop
				style="stop-color: rgb(153, 153, 153); stop-opacity: 0;"
				offset="1"
				id="stop20753-2"/>
		</linearGradient>
		<radialGradient
			inkscape:collect="always"
			xlink:href="#linearGradient20749-2"
			id="radialGradient2552-8"
			gradientUnits="userSpaceOnUse"
			cx="102.14286"
			cy="545.93359"
			fx="102.14286"
			fy="545.93359"
			r="135"/>
		<linearGradient
			inkscape:collect="always"
			xlink:href="#linearGradient3187-0"
			id="linearGradient2554-9"
			gradientUnits="userSpaceOnUse"
			x1="154.28572"
			y1="535.2193"
			x2="605.71429"
			y2="535.2193"/>
		<radialGradient
			inkscape:collect="always"
			xlink:href="#linearGradient18791-2"
			id="radialGradient2556-4"
			gradientUnits="userSpaceOnUse"
			cx="102.14286"
			cy="545.93359"
			fx="102.14286"
			fy="545.93359"
			r="135"/>
		<radialGradient
			inkscape:collect="always"
			xlink:href="#linearGradient20749-2"
			id="radialGradient2558-1"
			gradientUnits="userSpaceOnUse"
			cx="102.14286"
			cy="545.93359"
			fx="102.14286"
			fy="545.93359"
			r="135"/>
		<linearGradient
			inkscape:collect="always"
			xlink:href="#linearGradient3187-0"
			id="linearGradient2560-1"
			gradientUnits="userSpaceOnUse"
			x1="154.28572"
			y1="535.2193"
			x2="605.71429"
			y2="535.2193"/>
		<radialGradient
			inkscape:collect="always"
			xlink:href="#linearGradient18791-2"
			id="radialGradient2562-8"
			gradientUnits="userSpaceOnUse"
			cx="102.14286"
			cy="545.93359"
			fx="102.14286"
			fy="545.93359"
			r="135"/>
		<radialGradient
			inkscape:collect="always"
			xlink:href="#linearGradient20749-2"
			id="radialGradient2564-3"
			gradientUnits="userSpaceOnUse"
			cx="102.14286"
			cy="545.93359"
			fx="102.14286"
			fy="545.93359"
			r="135"/>
		<linearGradient
			inkscape:collect="always"
			xlink:href="#linearGradient3187-0"
			id="linearGradient2566-9"
			gradientUnits="userSpaceOnUse"
			x1="154.28572"
			y1="535.2193"
			x2="605.71429"
			y2="535.2193"/>
		<radialGradient
			inkscape:collect="always"
			xlink:href="#linearGradient18791-2"
			id="radialGradient2568-2"
			gradientUnits="userSpaceOnUse"
			cx="102.14286"
			cy="545.93359"
			fx="102.14286"
			fy="545.93359"
			r="135"/>
		<radialGradient
			inkscape:collect="always"
			xlink:href="#linearGradient20749-2"
			id="radialGradient2570-7"
			gradientUnits="userSpaceOnUse"
			cx="102.14286"
			cy="545.93359"
			fx="102.14286"
			fy="545.93359"
			r="135"/>
		<linearGradient
			inkscape:collect="always"
			xlink:href="#linearGradient3187-0"
			id="linearGradient2572-1"
			gradientUnits="userSpaceOnUse"
			x1="154.28572"
			y1="535.2193"
			x2="605.71429"
			y2="535.2193"/>
		<radialGradient
			inkscape:collect="always"
			xlink:href="#linearGradient18791-2"
			id="radialGradient2574-0"
			gradientUnits="userSpaceOnUse"
			cx="102.14286"
			cy="545.93359"
			fx="102.14286"
			fy="545.93359"
			r="135"/>
		<radialGradient
			inkscape:collect="always"
			xlink:href="#linearGradient20749-2"
			id="radialGradient2576-9"
			gradientUnits="userSpaceOnUse"
			cx="102.14286"
			cy="545.93359"
			fx="102.14286"
			fy="545.93359"
			r="135"/>
		<linearGradient
			inkscape:collect="always"
			xlink:href="#linearGradient3187-0"
			id="linearGradient2578-5"
			gradientUnits="userSpaceOnUse"
			x1="154.28572"
			y1="535.2193"
			x2="605.71429"
			y2="535.2193"/>
		<radialGradient
			inkscape:collect="always"
			xlink:href="#linearGradient18791-2"
			id="radialGradient2580-2"
			gradientUnits="userSpaceOnUse"
			cx="102.14286"
			cy="545.93359"
			fx="102.14286"
			fy="545.93359"
			r="135"/>
		<radialGradient
			inkscape:collect="always"
			xlink:href="#linearGradient20749-2"
			id="radialGradient2582-5"
			gradientUnits="userSpaceOnUse"
			cx="102.14286"
			cy="545.93359"
			fx="102.14286"
			fy="545.93359"
			r="135"/>
		<linearGradient
			inkscape:collect="always"
			xlink:href="#linearGradient15834-2"
			id="linearGradient2584-4"
			gradientUnits="userSpaceOnUse"
			x1="154.28572"
			y1="535.2193"
			x2="605.71429"
			y2="535.2193"/>
		<radialGradient
			inkscape:collect="always"
			xlink:href="#linearGradient18791-2"
			id="radialGradient2586-1"
			gradientUnits="userSpaceOnUse"
			cx="102.14286"
			cy="545.93359"
			fx="102.14286"
			fy="545.93359"
			r="135"/>
		<radialGradient
			r="135"
			fy="545.93359"
			fx="102.14286"
			cy="545.93359"
			cx="102.14286"
			gradientUnits="userSpaceOnUse"
			id="radialGradient2586-8"
			xlink:href="#linearGradient18791-4"
			inkscape:collect="always"/>
		<linearGradient
			y2="535.2193"
			x2="605.71429"
			y1="535.2193"
			x1="154.28572"
			gradientUnits="userSpaceOnUse"
			id="linearGradient2584-42"
			xlink:href="#linearGradient15834-25"
			inkscape:collect="always"/>
		<radialGradient
			r="135"
			fy="545.93359"
			fx="102.14286"
			cy="545.93359"
			cx="102.14286"
			gradientUnits="userSpaceOnUse"
			id="radialGradient2582-9"
			xlink:href="#linearGradient20749-3"
			inkscape:collect="always"/>
		<radialGradient
			r="135"
			fy="545.93359"
			fx="102.14286"
			cy="545.93359"
			cx="102.14286"
			gradientUnits="userSpaceOnUse"
			id="radialGradient2580-0"
			xlink:href="#linearGradient18791-4"
			inkscape:collect="always"/>
		<linearGradient
			y2="535.2193"
			x2="605.71429"
			y1="535.2193"
			x1="154.28572"
			gradientUnits="userSpaceOnUse"
			id="linearGradient2578-58"
			xlink:href="#linearGradient3187-6"
			inkscape:collect="always"/>
		<radialGradient
			r="135"
			fy="545.93359"
			fx="102.14286"
			cy="545.93359"
			cx="102.14286"
			gradientUnits="userSpaceOnUse"
			id="radialGradient2576-7"
			xlink:href="#linearGradient20749-3"
			inkscape:collect="always"/>
		<radialGradient
			r="135"
			fy="545.93359"
			fx="102.14286"
			cy="545.93359"
			cx="102.14286"
			gradientUnits="userSpaceOnUse"
			id="radialGradient2574-09"
			xlink:href="#linearGradient18791-4"
			inkscape:collect="always"/>
		<linearGradient
			y2="535.2193"
			x2="605.71429"
			y1="535.2193"
			x1="154.28572"
			gradientUnits="userSpaceOnUse"
			id="linearGradient2572-3"
			xlink:href="#linearGradient3187-6"
			inkscape:collect="always"/>
		<radialGradient
			r="135"
			fy="545.93359"
			fx="102.14286"
			cy="545.93359"
			cx="102.14286"
			gradientUnits="userSpaceOnUse"
			id="radialGradient2570-2"
			xlink:href="#linearGradient20749-3"
			inkscape:collect="always"/>
		<radialGradient
			r="135"
			fy="545.93359"
			fx="102.14286"
			cy="545.93359"
			cx="102.14286"
			gradientUnits="userSpaceOnUse"
			id="radialGradient2568-4"
			xlink:href="#linearGradient18791-4"
			inkscape:collect="always"/>
		<linearGradient
			y2="535.2193"
			x2="605.71429"
			y1="535.2193"
			x1="154.28572"
			gradientUnits="userSpaceOnUse"
			id="linearGradient2566-1"
			xlink:href="#linearGradient3187-6"
			inkscape:collect="always"/>
		<radialGradient
			r="135"
			fy="545.93359"
			fx="102.14286"
			cy="545.93359"
			cx="102.14286"
			gradientUnits="userSpaceOnUse"
			id="radialGradient2564-6"
			xlink:href="#linearGradient20749-3"
			inkscape:collect="always"/>
		<radialGradient
			r="135"
			fy="545.93359"
			fx="102.14286"
			cy="545.93359"
			cx="102.14286"
			gradientUnits="userSpaceOnUse"
			id="radialGradient2562-4"
			xlink:href="#linearGradient18791-4"
			inkscape:collect="always"/>
		<linearGradient
			y2="535.2193"
			x2="605.71429"
			y1="535.2193"
			x1="154.28572"
			gradientUnits="userSpaceOnUse"
			id="linearGradient2560-9"
			xlink:href="#linearGradient3187-6"
			inkscape:collect="always"/>
		<radialGradient
			r="135"
			fy="545.93359"
			fx="102.14286"
			cy="545.93359"
			cx="102.14286"
			gradientUnits="userSpaceOnUse"
			id="radialGradient2558-8"
			xlink:href="#linearGradient20749-3"
			inkscape:collect="always"/>
		<radialGradient
			r="135"
			fy="545.93359"
			fx="102.14286"
			cy="545.93359"
			cx="102.14286"
			gradientUnits="userSpaceOnUse"
			id="radialGradient2556-9"
			xlink:href="#linearGradient18791-4"
			inkscape:collect="always"/>
		<linearGradient
			y2="535.2193"
			x2="605.71429"
			y1="535.2193"
			x1="154.28572"
			gradientUnits="userSpaceOnUse"
			id="linearGradient2554-6"
			xlink:href="#linearGradient3187-6"
			inkscape:collect="always"/>
		<radialGradient
			r="135"
			fy="545.93359"
			fx="102.14286"
			cy="545.93359"
			cx="102.14286"
			gradientUnits="userSpaceOnUse"
			id="radialGradient2552-3"
			xlink:href="#linearGradient20749-3"
			inkscape:collect="always"/>
		<linearGradient
			id="linearGradient20749-3"
			inkscape:collect="always">
			<stop
				id="stop20751-83"
				offset="0"
				style="stop-color: rgb(153, 153, 153); stop-opacity: 1;"/>
			<stop
				id="stop20753-9"
				offset="1"
				style="stop-color: rgb(153, 153, 153); stop-opacity: 0;"/>
		</linearGradient>
		<linearGradient
			id="linearGradient3187-6">
			<stop
				id="stop3189-7"
				offset="0"
				style="stop-color:#081074;stop-opacity:1;"/>
			<stop
				style="stop-color:#5873c2;stop-opacity:1;"
				offset="0.5"
				id="stop3191-7"/>
			<stop
				id="stop3193-1"
				offset="0.75"
				style="stop-color:#0f99d2;stop-opacity:1;"/>
			<stop
				style="stop-color:#1660d4;stop-opacity:0.6156863;"
				offset="0.9375"
				id="stop3290-3"/>
			<stop
				style="stop-color:#414cf6;stop-opacity:0.21568628;"
				offset="1"
				id="stop3292-7"/>
		</linearGradient>
		<linearGradient
			id="linearGradient18791-4"
			inkscape:collect="always">
			<stop
				id="stop18793-4"
				offset="0"
				style="stop-color: rgb(255, 255, 255); stop-opacity: 1;"/>
			<stop
				id="stop18795-29"
				offset="1"
				style="stop-color: rgb(255, 255, 255); stop-opacity: 0;"/>
		</linearGradient>
		<linearGradient
			id="linearGradient15834-25">
			<stop
				style="stop-color: rgb(119, 9, 0); stop-opacity: 1;"
				offset="0"
				id="stop15842-5"/>
			<stop
				id="stop15848-2"
				offset="0.5"
				style="stop-color: rgb(218, 16, 27); stop-opacity: 1;"/>
			<stop
				style="stop-color: rgb(210, 64, 15); stop-opacity: 1;"
				offset="0.75"
				id="stop15850-3"/>
			<stop
				id="stop15852-7"
				offset="0.9375"
				style="stop-color: rgb(212, 67, 22); stop-opacity: 0.614583;"/>
			<stop
				id="stop15838-1"
				offset="1"
				style="stop-color: rgb(195, 0, 0); stop-opacity: 0.21875;"/>
		</linearGradient>
	</defs>
	<rect
		style="fill:#816647;fill-opacity:1;fill-rule:evenodd;stroke:none"
		id="rect3078"
		width="201.58052"
		height="116.02962"
		x="-0.21073472"
		y="85.03125"
		transform="matrix(0.9999999,4.5090835e-4,-9.7098496e-4,0.99999953,0,0)"/>
	<text
		xml:space="preserve"
		style="font-size:106.01631165px;font-style:normal;font-variant:normal;font-weight:normal;font-stretch:normal;text-align:center;line-height:125%;writing-mode:lr-tb;text-anchor:middle;fill:#fffafa;fill-opacity:1;fill-rule:evenodd;stroke:#ffffff;stroke-width:0.99999988;stroke-miterlimit:4;stroke-opacity:1;stroke-dasharray:none;font-family:Busorama;-inkscape-font-specification:Busorama"
		x="110.61771"
		y="169.19168"
		id="text2819"
		sodipodi:linespacing="125%"
		transform="scale(0.91738215,1.0900583)"><tspan
       sodipodi:role="line"
       id="tspan3051"
       x="110.61771"
       y="169.19168"
       style="stroke-width:0.99999988">DOT</tspan></text>
	<g
		id="g2457"
		transform="matrix(0.1947287,0,0,0.18683669,29.456821,-8.1552063)">
		<path
			inkscape:export-ydpi="9.05721"
			inkscape:export-xdpi="9.05721"
			inkscape:export-filename="/home/bbou/Images/svg/logo.png"
			sodipodi:nodetypes="cc"
			id="path3243"
			d="M 336.61638,423.30488 C 261.24337,519.99697 171.46154,548.70431 130.67789,547.33858"
			style="fill:none;stroke:#0a3f6b;stroke-width:15.72805977;stroke-linecap:butt;stroke-linejoin:miter;stroke-miterlimit:4;stroke-opacity:1;stroke-dasharray:none"
			inkscape:connector-curvature="0"/>
		<path
			inkscape:export-ydpi="9.05721"
			inkscape:export-xdpi="9.05721"
			inkscape:export-filename="/home/bbou/Images/svg/logo.png"
			sodipodi:nodetypes="cc"
			id="path3239"
			d="M 498.07214,135.48308 C 289.38264,291.76004 183.46742,327.79725 119.14535,315.17294"
			style="fill:none;stroke:#184086;stroke-width:15.72805977;stroke-linecap:butt;stroke-linejoin:miter;stroke-miterlimit:4;stroke-opacity:1;stroke-dasharray:none"
			inkscape:connector-curvature="0"/>
		<path
			inkscape:export-ydpi="9.05721"
			inkscape:export-xdpi="9.05721"
			inkscape:export-filename="/home/bbou/Images/svg/logo.png"
			sodipodi:nodetypes="cccc"
			id="path3241"
			d="m 636.46281,426.48523 c -78.01317,-37.57408 -145.62945,-52.28357 -143.33319,-287.8218 -46.09837,93.0099 -77.994,179.16556 -156.51324,287.8218 -36.95989,136.9485 -19.63824,188.75907 13.18006,216.2639"
			style="fill:none;stroke:#053f9d;stroke-width:15.72805977;stroke-linecap:butt;stroke-linejoin:miter;stroke-miterlimit:4;stroke-opacity:1;stroke-dasharray:none"
			inkscape:connector-curvature="0"/>
		<g
			inkscape:export-ydpi="9.05721"
			inkscape:export-xdpi="9.05721"
			inkscape:export-filename="/home/bbou/Images/svg/logo.png"
			id="g3276"
			transform="matrix(0.6324992,0,0,0.6104887,104.48054,222.03458)">
			<path
				inkscape:transform-center-x="-6.1984247"
				inkscape:transform-center-y="10.305508"
				sodipodi:type="arc"
				style="fill:url(#radialGradient2552);fill-opacity:1;stroke:none"
				id="path2405"
				sodipodi:cx="102.14286"
				sodipodi:cy="545.93359"
				sodipodi:rx="135"
				sodipodi:ry="135"
				d="m 237.14286,545.93359 c 0,74.55844 -60.44156,135 -135,135 -74.558441,0 -135,-60.44156 -135,-135 0,-74.55844 60.441559,-135 135,-135 74.55844,0 135,60.44156 135,135 z"
				transform="matrix(0.4868182,-0.159292,0.2159667,0.3590683,218.09375,569.14203)"/>
			<path
				transform="matrix(-0.2250447,-0.2473629,0.2473629,-0.2250447,337.19807,892.31551)"
				d="m 605.71428,535.2193 c 0,124.65855 -101.05573,225.71428 -225.71428,225.71428 -124.65855,0 -225.71428,-101.05573 -225.71428,-225.71428 0,-124.65855 101.05573,-225.71428 225.71428,-225.71428 124.65855,0 225.71428,101.05573 225.71428,225.71428 z"
				sodipodi:ry="225.71428"
				sodipodi:rx="225.71428"
				sodipodi:cy="535.2193"
				sodipodi:cx="380"
				id="path2407"
				style="fill:url(#linearGradient2554);fill-opacity:1;stroke:none"
				sodipodi:type="arc"/>
			<path
				transform="matrix(0.3344152,0,0,0.3344152,331.52371,474.04047)"
				d="m 237.14286,545.93359 c 0,74.55844 -60.44156,135 -135,135 -74.558441,0 -135,-60.44156 -135,-135 0,-74.55844 60.441559,-135 135,-135 74.55844,0 135,60.44156 135,135 z"
				sodipodi:ry="135"
				sodipodi:rx="135"
				sodipodi:cy="545.93359"
				sodipodi:cx="102.14286"
				id="path2409"
				style="opacity:0.87614698;fill:url(#radialGradient2556);fill-opacity:1;stroke:none"
				sodipodi:type="arc"/>
		</g>
		<g
			inkscape:export-ydpi="9.05721"
			inkscape:export-xdpi="9.05721"
			inkscape:export-filename="/home/bbou/Images/svg/logo.png"
			id="g3302"
			transform="matrix(0.6324992,0,0,0.6104887,390.24099,13.721564)">
			<path
				inkscape:transform-center-x="-6.1984247"
				inkscape:transform-center-y="10.305508"
				sodipodi:type="arc"
				style="fill:url(#radialGradient2558);fill-opacity:1;stroke:none"
				id="path3304"
				sodipodi:cx="102.14286"
				sodipodi:cy="545.93359"
				sodipodi:rx="135"
				sodipodi:ry="135"
				d="m 237.14286,545.93359 c 0,74.55844 -60.44156,135 -135,135 -74.558441,0 -135,-60.44156 -135,-135 0,-74.55844 60.441559,-135 135,-135 74.55844,0 135,60.44156 135,135 z"
				transform="matrix(0.4868182,-0.159292,0.2159667,0.3590683,218.09375,569.14203)"/>
			<path
				transform="matrix(-0.2250447,-0.2473629,0.2473629,-0.2250447,337.19807,892.31551)"
				d="m 605.71428,535.2193 c 0,124.65855 -101.05573,225.71428 -225.71428,225.71428 -124.65855,0 -225.71428,-101.05573 -225.71428,-225.71428 0,-124.65855 101.05573,-225.71428 225.71428,-225.71428 124.65855,0 225.71428,101.05573 225.71428,225.71428 z"
				sodipodi:ry="225.71428"
				sodipodi:rx="225.71428"
				sodipodi:cy="535.2193"
				sodipodi:cx="380"
				id="path3306"
				style="fill:url(#linearGradient2560);fill-opacity:1;stroke:none"
				sodipodi:type="arc"/>
			<path
				transform="matrix(0.3344152,0,0,0.3344152,331.52371,474.04047)"
				d="m 237.14286,545.93359 c 0,74.55844 -60.44156,135 -135,135 -74.558441,0 -135,-60.44156 -135,-135 0,-74.55844 60.441559,-135 135,-135 74.55844,0 135,60.44156 135,135 z"
				sodipodi:ry="135"
				sodipodi:rx="135"
				sodipodi:cy="545.93359"
				sodipodi:cx="102.14286"
				id="path3308"
				style="opacity:0.87614698;fill:url(#radialGradient2562);fill-opacity:1;stroke:none"
				sodipodi:type="arc"/>
		</g>
		<g
			inkscape:export-ydpi="9.05721"
			inkscape:export-xdpi="9.05721"
			inkscape:export-filename="/home/bbou/Images/svg/logo.png"
			id="g3316"
			transform="matrix(0.6324992,0,0,0.6104887,-112.2489,129.80439)">
			<path
				inkscape:transform-center-x="-6.1984247"
				inkscape:transform-center-y="10.305508"
				sodipodi:type="arc"
				style="fill:url(#radialGradient2564);fill-opacity:1;stroke:none"
				id="path3318"
				sodipodi:cx="102.14286"
				sodipodi:cy="545.93359"
				sodipodi:rx="135"
				sodipodi:ry="135"
				d="m 237.14286,545.93359 c 0,74.55844 -60.44156,135 -135,135 -74.558441,0 -135,-60.44156 -135,-135 0,-74.55844 60.441559,-135 135,-135 74.55844,0 135,60.44156 135,135 z"
				transform="matrix(0.4868182,-0.159292,0.2159667,0.3590683,218.09375,569.14203)"/>
			<path
				transform="matrix(-0.2250447,-0.2473629,0.2473629,-0.2250447,337.19807,892.31551)"
				d="m 605.71428,535.2193 c 0,124.65855 -101.05573,225.71428 -225.71428,225.71428 -124.65855,0 -225.71428,-101.05573 -225.71428,-225.71428 0,-124.65855 101.05573,-225.71428 225.71428,-225.71428 124.65855,0 225.71428,101.05573 225.71428,225.71428 z"
				sodipodi:ry="225.71428"
				sodipodi:rx="225.71428"
				sodipodi:cy="535.2193"
				sodipodi:cx="380"
				id="path3320"
				style="fill:url(#linearGradient2566);fill-opacity:1;stroke:none"
				sodipodi:type="arc"/>
			<path
				transform="matrix(0.3344152,0,0,0.3344152,331.52371,474.04047)"
				d="m 237.14286,545.93359 c 0,74.55844 -60.44156,135 -135,135 -74.558441,0 -135,-60.44156 -135,-135 0,-74.55844 60.441559,-135 135,-135 74.55844,0 135,60.44156 135,135 z"
				sodipodi:ry="135"
				sodipodi:rx="135"
				sodipodi:cy="545.93359"
				sodipodi:cx="102.14286"
				id="path3322"
				style="opacity:0.87614698;fill:url(#radialGradient2568);fill-opacity:1;stroke:none"
				sodipodi:type="arc"/>
		</g>
		<g
			inkscape:export-ydpi="9.05721"
			inkscape:export-xdpi="9.05721"
			inkscape:export-filename="/home/bbou/Images/svg/logo.png"
			id="g3330"
			transform="matrix(0.6324992,0,0,0.6104887,92.042067,12.131385)">
			<path
				inkscape:transform-center-x="-6.1984247"
				inkscape:transform-center-y="10.305508"
				sodipodi:type="arc"
				style="fill:url(#radialGradient2570);fill-opacity:1;stroke:none"
				id="path3332"
				sodipodi:cx="102.14286"
				sodipodi:cy="545.93359"
				sodipodi:rx="135"
				sodipodi:ry="135"
				d="m 237.14286,545.93359 c 0,74.55844 -60.44156,135 -135,135 -74.558441,0 -135,-60.44156 -135,-135 0,-74.55844 60.441559,-135 135,-135 74.55844,0 135,60.44156 135,135 z"
				transform="matrix(0.4868182,-0.159292,0.2159667,0.3590683,218.09375,569.14203)"/>
			<path
				transform="matrix(-0.2250447,-0.2473629,0.2473629,-0.2250447,337.19807,892.31551)"
				d="m 605.71428,535.2193 c 0,124.65855 -101.05573,225.71428 -225.71428,225.71428 -124.65855,0 -225.71428,-101.05573 -225.71428,-225.71428 0,-124.65855 101.05573,-225.71428 225.71428,-225.71428 124.65855,0 225.71428,101.05573 225.71428,225.71428 z"
				sodipodi:ry="225.71428"
				sodipodi:rx="225.71428"
				sodipodi:cy="535.2193"
				sodipodi:cx="380"
				id="path3334"
				style="fill:url(#linearGradient2572);fill-opacity:1;stroke:none"
				sodipodi:type="arc"/>
			<path
				transform="matrix(0.3344152,0,0,0.3344152,331.52371,474.04047)"
				d="m 237.14286,545.93359 c 0,74.55844 -60.44156,135 -135,135 -74.558441,0 -135,-60.44156 -135,-135 0,-74.55844 60.441559,-135 135,-135 74.55844,0 135,60.44156 135,135 z"
				sodipodi:ry="135"
				sodipodi:rx="135"
				sodipodi:cy="545.93359"
				sodipodi:cx="102.14286"
				id="path3336"
				style="opacity:0.87614698;fill:url(#radialGradient2574);fill-opacity:1;stroke:none"
				sodipodi:type="arc"/>
		</g>
		<g
			inkscape:export-ydpi="9.05721"
			inkscape:export-xdpi="9.05721"
			inkscape:export-filename="/home/bbou/Images/svg/logo.png"
			id="g3344"
			transform="matrix(0.6324992,0,0,0.6104887,-130.37149,-107.13179)">
			<path
				inkscape:transform-center-x="-6.1984247"
				inkscape:transform-center-y="10.305508"
				sodipodi:type="arc"
				style="fill:url(#radialGradient2576);fill-opacity:1;stroke:none"
				id="path3346"
				sodipodi:cx="102.14286"
				sodipodi:cy="545.93359"
				sodipodi:rx="135"
				sodipodi:ry="135"
				d="m 237.14286,545.93359 c 0,74.55844 -60.44156,135 -135,135 -74.558441,0 -135,-60.44156 -135,-135 0,-74.55844 60.441559,-135 135,-135 74.55844,0 135,60.44156 135,135 z"
				transform="matrix(0.4868182,-0.159292,0.2159667,0.3590683,218.09375,569.14203)"/>
			<path
				transform="matrix(-0.2250447,-0.2473629,0.2473629,-0.2250447,337.19807,892.31551)"
				d="m 605.71428,535.2193 c 0,124.65855 -101.05573,225.71428 -225.71428,225.71428 -124.65855,0 -225.71428,-101.05573 -225.71428,-225.71428 0,-124.65855 101.05573,-225.71428 225.71428,-225.71428 124.65855,0 225.71428,101.05573 225.71428,225.71428 z"
				sodipodi:ry="225.71428"
				sodipodi:rx="225.71428"
				sodipodi:cy="535.2193"
				sodipodi:cx="380"
				id="path3348"
				style="fill:url(#linearGradient2578);fill-opacity:1;stroke:none"
				sodipodi:type="arc"/>
			<path
				transform="matrix(0.3344152,0,0,0.3344152,331.52371,474.04047)"
				d="m 237.14286,545.93359 c 0,74.55844 -60.44156,135 -135,135 -74.558441,0 -135,-60.44156 -135,-135 0,-74.55844 60.441559,-135 135,-135 74.55844,0 135,60.44156 135,135 z"
				sodipodi:ry="135"
				sodipodi:rx="135"
				sodipodi:cy="545.93359"
				sodipodi:cx="102.14286"
				id="path3350"
				style="opacity:0.87614698;fill:url(#radialGradient2580);fill-opacity:1;stroke:none"
				sodipodi:type="arc"/>
		</g>
		<g
			inkscape:export-ydpi="9.05721"
			inkscape:export-xdpi="9.05721"
			inkscape:export-filename="/home/bbou/Images/svg/logo.png"
			id="g3271"
			transform="matrix(0.6572688,0,0,0.6343963,250.746,-153.2942)">
			<path
				transform="matrix(0.4868182,-0.159292,0.2159667,0.3590683,209.52232,323.42774)"
				d="m 237.14286,545.93359 c 0,74.55844 -60.44156,135 -135,135 -74.558441,0 -135,-60.44156 -135,-135 0,-74.55844 60.441559,-135 135,-135 74.55844,0 135,60.44156 135,135 z"
				sodipodi:ry="135"
				sodipodi:rx="135"
				sodipodi:cy="545.93359"
				sodipodi:cx="102.14286"
				id="path18799"
				style="fill:url(#radialGradient2582);fill-opacity:1;stroke:none"
				sodipodi:type="arc"
				inkscape:transform-center-y="10.305508"
				inkscape:transform-center-x="-6.1984247"/>
			<path
				sodipodi:type="arc"
				style="fill:url(#linearGradient2584);fill-opacity:1;stroke:none"
				id="path14863"
				sodipodi:cx="380"
				sodipodi:cy="535.2193"
				sodipodi:rx="225.71428"
				sodipodi:ry="225.71428"
				d="m 605.71428,535.2193 c 0,124.65855 -101.05573,225.71428 -225.71428,225.71428 -124.65855,0 -225.71428,-101.05573 -225.71428,-225.71428 0,-124.65855 101.05573,-225.71428 225.71428,-225.71428 124.65855,0 225.71428,101.05573 225.71428,225.71428 z"
				transform="matrix(-0.2250447,-0.2473629,0.2473629,-0.2250447,328.62664,646.60122)"/>
			<path
				sodipodi:type="arc"
				style="opacity:0.87614698;fill:url(#radialGradient2586);fill-opacity:1;stroke:none"
				id="path17820"
				sodipodi:cx="102.14286"
				sodipodi:cy="545.93359"
				sodipodi:rx="135"
				sodipodi:ry="135"
				d="m 237.14286,545.93359 c 0,74.55844 -60.44156,135 -135,135 -74.558441,0 -135,-60.44156 -135,-135 0,-74.55844 60.441559,-135 135,-135 74.55844,0 135,60.44156 135,135 z"
				transform="matrix(0.3344152,0,0,0.3344152,322.95228,228.32618)"/>
		</g>
	</g>
	<style
		id="style8-0"
		type="text/css">
		.Border { fill: lightGray; stroke: black; stroke-width: 4; }
		.Label { font-size:24; font-family:Arial; fill:black; }
	</style>
	<style
		type="text/css"
		id="style8-6">
		.Border { fill: lightGray; stroke: black; stroke-width: 4; }
		.Label { font-size:24; font-family:Arial; fill:black; }
	</style>
	<path
		d="m 151.95445,1.4764855 0,17.8913175 c 0.86222,0.318957 2.27918,0.257956 4.69337,-1.552698 0.66123,-0.50896 2.22199,-1.28771 3.63474,-1.44685 0.0121,-4.3e-4 0.0235,-4.3e-4 0.0354,0 1.86857,0 3.5335,1.0979 4.69337,2.787813 1.1599,1.689915 1.83501,3.973539 1.83501,6.493096 0,2.519557 -0.67456,4.811719 -1.83501,6.493096 -1.16043,1.681361 -2.82645,2.75254 -4.69337,2.75254 -0.65112,-0.01725 -1.33189,-0.27215 -1.97615,-0.56465 -0.64428,-0.2925 -1.24315,-0.611043 -1.62328,-0.81162 -0.0245,-0.01725 -0.0481,-0.02242 -0.0705,-0.03622 -2.41421,-1.810675 -3.83117,-1.871676 -4.69339,-1.552719 l 0,7.939956 0,3.599342 0,6.104912 3.84645,0 3.59945,0 6.06963,0 c 0.17177,0 0.34167,0.09658 0.42347,0.247143 0.60055,1.201045 0.48412,3.111784 -1.55271,5.85777 -0.009,0.01725 -0.0255,0.05174 -0.0354,0.07071 -0.2122,0.399429 -0.51797,0.948385 -0.77635,1.517691 -0.27034,0.595521 -0.48756,1.205357 -0.49404,1.587884 0,1.499238 0.8946,2.884131 2.39962,3.917023 1.50503,1.033065 3.6188,1.69395 5.96378,1.69395 2.34497,0 4.46784,-0.661403 5.96377,-1.69395 1.48416,-1.024269 2.35078,-2.394675 2.36432,-3.881667 -0.001,-0.01725 0.001,-0.02587 0,-0.03622 -0.13538,-1.107914 -0.95142,-2.69097 -1.27037,-3.105575 -2.09,-2.786688 -2.15457,-4.724676 -1.55271,-5.928308 0.0817,-0.151769 0.25165,-0.250247 0.42347,-0.247143 l 20.46736,0 0,-41.3228435 c 0,-3.75358 -3.02182,-6.77541 -6.7754,-6.77541 z"
		inkscape:connector-curvature="0"
		id="path4113"
		style="color:#000000;fill:#999999;fill-opacity:1;fill-rule:nonzero;stroke:none;stroke-width:2;marker:none;visibility:visible;display:inline;overflow:visible;enable-background:accumulate"/>
	<g
		id="g26594"
		transform="translate(-451.03238,-998.80511)"/>
	<g
		id="g3323"
		transform="translate(-46.989608,-311.39975)"/>
</svg>
