<svg xmlns="http://www.w3.org/2000/svg" width="341.333" height="341.333"><defs><marker id="b" orient="auto" refX="0" refY="0" style="overflow:visible"><path d="M1.23 0-.613 1.067v-2.134z" style="fill:gray;fill-rule:evenodd;stroke:gray;stroke-width:.21333334pt"/></marker><marker id="a" orient="auto" refX="0" refY="0" style="overflow:visible"><path d="M1.23 0-.613 1.067v-2.134z" style="fill:gray;fill-rule:evenodd;stroke:gray;stroke-width:.21333334pt"/></marker><marker id="d" orient="auto" refX="0" refY="0" style="overflow:visible"><path d="M1.23 0-.613 1.067v-2.134z" style="fill:gray;fill-rule:evenodd;stroke:gray;stroke-width:.21333334pt"/></marker><marker id="c" orient="auto" refX="0" refY="0" style="overflow:visible"><path d="M1.23 0-.613 1.067v-2.134z" style="fill:gray;fill-rule:evenodd;stroke:gray;stroke-width:.21333334pt"/></marker></defs><text xml:space="preserve" x="222.037" y="202.647" style="font-style:normal;font-variant:normal;font-weight:400;font-stretch:condensed;font-size:12.80000019px;line-height:0%;font-family:Impact;-inkscape-font-specification:&quot;Impact Condensed&quot;;text-align:start;writing-mode:lr-tb;text-anchor:start;fill:#816647;fill-opacity:1;stroke:#532a19;stroke-width:.74274063;stroke-miterlimit:4;stroke-dasharray:none;stroke-opacity:1" transform="matrix(.90512 0 0 1.10483 -195.48 101.168)"><tspan x="222.037" y="202.647" style="font-size:104.4358139px;line-height:1.25;fill:#816647;stroke:#532a19;stroke-width:.74274063;stroke-opacity:1">graphviz</tspan></text><path d="M216.542-84.486h299.231" style="fill:#0ff;stroke:#fff;stroke-width:1.06666672px;stroke-linecap:butt;stroke-linejoin:miter;stroke-opacity:1" transform="matrix(.76574 -.00014 .00014 .78538 -114.409 58.758)"/><path d="M221.626-67.889H514.32M221.626-51.29H514.32M221.626-34.693H514.32M221.626-18.096H514.32M221.626-1.498H514.32M221.626 15.1H514.32M221.626 31.697H514.32M221.626 48.295H514.32M221.626 64.893H514.32M221.626 81.49H514.32M221.626 98.088H514.32m-292.694 16.598H514.32m-292.694 16.597H514.32M221.626 147.88H514.32m-292.694 16.599H514.32m-292.694 16.597H514.32m-292.694 33.196H514.32m-292.694-16.598H514.32" style="fill:#20b2aa;stroke:#00ced1;stroke-width:1.06666672px;stroke-linecap:butt;stroke-linejoin:miter;stroke-opacity:1" transform="matrix(.76574 -.00014 .00014 .78538 -114.409 58.758)"/><path d="M216.542-84.486h299.231" style="fill:#0ff;stroke:#fff;stroke-width:1.06666672px;stroke-linecap:butt;stroke-linejoin:miter;stroke-opacity:1" transform="matrix(-.00764 .75402 -.78678 -.00859 227.514 -161.207)"/><path d="M221.626-67.889H514.32M221.626-51.29H514.32M221.626-34.693H514.32M221.626-18.096H514.32M221.626-1.498H514.32M221.626 15.1H514.32M221.626 31.697H514.32M221.626 48.295H514.32M221.626 64.893H514.32M221.626 81.49H514.32M221.626 98.088H514.32m-292.694 16.598H514.32m-292.694 16.597H514.32M221.626 147.88H514.32m-292.694 16.599H514.32m-292.694 16.597H514.32m-292.694 33.196H514.32m-292.694-16.598H514.32" style="fill:#20b2aa;stroke:#00ced1;stroke-width:1.06666672px;stroke-linecap:butt;stroke-linejoin:miter;stroke-opacity:1" transform="matrix(.00002 .75567 -.792 .00164 225.32 -162.09)"/><g transform="matrix(.88978 0 0 .77545 -168.476 60.119)"><ellipse cx="377.181" cy="-36.247" rx="36.149" ry="23.39" style="fill:none;stroke:gray;stroke-width:8.74768162;stroke-linejoin:round;stroke-miterlimit:4;stroke-dasharray:none;stroke-dashoffset:0;stroke-opacity:1"/><ellipse cx="378.021" cy="73.381" rx="36.149" ry="23.39" style="fill:none;stroke:gray;stroke-width:8.74768162;stroke-linejoin:round;stroke-miterlimit:4;stroke-dasharray:none;stroke-dashoffset:0;stroke-opacity:1"/></g><g transform="matrix(.88978 0 0 .77545 -168.85 60.119)"><ellipse cx="311.019" cy="180.048" rx="36.149" ry="23.39" style="fill:none;stroke:gray;stroke-width:8.74768162;stroke-linejoin:round;stroke-miterlimit:4;stroke-dasharray:none;stroke-dashoffset:0;stroke-opacity:1"/><ellipse cx="445.023" cy="180.048" rx="36.149" ry="23.39" style="fill:none;stroke:gray;stroke-width:8.74768162;stroke-linejoin:round;stroke-miterlimit:4;stroke-dasharray:none;stroke-dashoffset:0;stroke-opacity:1"/></g><path d="M305.875 155.19c-.702-17.412-12.973-94.825 40.673-164.868" style="fill:none;stroke:gray;stroke-width:6.4000001;stroke-linecap:butt;stroke-linejoin:miter;stroke-miterlimit:4;stroke-dasharray:none;stroke-opacity:1;marker-start:none;marker-end:url(#a)" transform="matrix(.88978 0 0 .77545 -168.85 60.119)"/><path d="M448.121 153.737c.702-17.412 15.152-94.825-38.493-164.868" style="fill:none;stroke:gray;stroke-width:6.4000001;stroke-linecap:butt;stroke-linejoin:miter;stroke-miterlimit:4;stroke-dasharray:none;stroke-opacity:1;marker-start:none;marker-end:url(#b)" transform="matrix(.88978 0 0 .77545 -168.85 60.119)"/><path d="M376.325-9.678v49.15" style="fill:none;stroke:gray;stroke-width:6.07936144;stroke-linecap:butt;stroke-linejoin:miter;stroke-miterlimit:4;stroke-dasharray:none;stroke-opacity:1;marker-end:url(#c)" transform="matrix(.88978 0 0 .77545 -168.85 60.119)"/><path d="m364.705 94.907-31.957 53.02" style="fill:#a9a9a9;stroke:gray;stroke-width:6.4000001;stroke-linecap:butt;stroke-linejoin:miter;stroke-miterlimit:4;stroke-dasharray:none;stroke-opacity:1;marker-end:url(#d)" transform="matrix(.88978 0 0 .77545 -168.85 60.119)"/><path d="m388.936 94.907 31.956 53.02" style="fill:#a9a9a9;stroke:gray;stroke-width:6.4000001;stroke-linecap:butt;stroke-linejoin:miter;stroke-miterlimit:4;stroke-dasharray:none;stroke-opacity:1;marker-end:url(#d)" transform="matrix(.88978 0 0 .77545 -168.85 60.119)"/><path d="M455.165-90.968v28.524c1.375.508 3.634.41 7.483-2.476 1.054-.811 3.542-2.053 5.794-2.307h.057c2.979 0 5.633 1.75 7.483 4.445 1.849 2.694 2.925 6.335 2.925 10.352s-1.075 7.671-2.925 10.352c-1.85 2.68-4.507 4.388-7.483 4.388-1.038-.027-2.124-.434-3.15-.9-1.028-.466-1.983-.974-2.589-1.294-.039-.027-.076-.036-.112-.058-3.85-2.886-6.108-2.984-7.483-2.475v28.13h21.548a.78.78 0 0 1 .675.394c.958 1.915.772 4.961-2.475 9.34-.015.027-.041.082-.057.112-.338.637-.826 1.512-1.238 2.42-.43.949-.777 1.921-.787 2.531 0 2.39 1.426 4.598 3.826 6.245 2.399 1.647 5.769 2.7 9.508 2.7 3.738 0 7.123-1.054 9.508-2.7 2.366-1.633 3.747-3.818 3.77-6.189-.002-.027 0-.04 0-.057-.217-1.767-1.518-4.29-2.026-4.952-3.332-4.442-3.435-7.532-2.476-9.451a.767.767 0 0 1 .675-.394h32.631V-80.17a10.778 10.778 0 0 0-10.802-10.802z" style="color:#000;display:inline;overflow:visible;visibility:visible;fill:#999;fill-opacity:1;fill-rule:nonzero;stroke:none;stroke-width:3.18859529;marker:none;enable-background:accumulate" transform="translate(-195.48 101.168)"/></svg>