<svg xmlns="http://www.w3.org/2000/svg" xmlns:xlink="http://www.w3.org/1999/xlink" width="640" height="640" version="1.0"><desc>Picture of a blue sphere (circle with 3D highlighting)</desc><defs><radialGradient xlink:href="#a" id="f" cx="102.143" cy="545.934" r="135" fx="102.143" fy="545.934" gradientTransform="matrix(.54636 0 0 .44695 -116.493 666.159)" gradientUnits="userSpaceOnUse"/><radialGradient xlink:href="#b" id="h" cx="102.143" cy="545.934" r="135" fx="102.143" fy="545.934" gradientTransform="translate(353.625 505.643)scale(.35671)" gradientUnits="userSpaceOnUse"/><radialGradient xlink:href="#a" id="i" cx="102.143" cy="545.934" r="135" fx="102.143" fy="545.934" gradientTransform="matrix(.54636 0 0 .44695 -116.493 666.159)" gradientUnits="userSpaceOnUse"/><radialGradient xlink:href="#b" id="k" cx="102.143" cy="545.934" r="135" fx="102.143" fy="545.934" gradientTransform="translate(353.625 505.643)scale(.35671)" gradientUnits="userSpaceOnUse"/><radialGradient xlink:href="#a" id="l" cx="102.143" cy="545.934" r="135" fx="102.143" fy="545.934" gradientTransform="matrix(.54636 0 0 .44695 -116.493 666.159)" gradientUnits="userSpaceOnUse"/><radialGradient xlink:href="#b" id="n" cx="102.143" cy="545.934" r="135" fx="102.143" fy="545.934" gradientTransform="translate(353.625 505.643)scale(.35671)" gradientUnits="userSpaceOnUse"/><radialGradient xlink:href="#a" id="o" cx="102.143" cy="545.934" r="135" fx="102.143" fy="545.934" gradientTransform="matrix(.54636 0 0 .44695 -116.493 666.159)" gradientUnits="userSpaceOnUse"/><radialGradient xlink:href="#b" id="q" cx="102.143" cy="545.934" r="135" fx="102.143" fy="545.934" gradientTransform="translate(353.625 505.643)scale(.35671)" gradientUnits="userSpaceOnUse"/><radialGradient xlink:href="#a" id="r" cx="102.143" cy="545.934" r="135" fx="102.143" fy="545.934" gradientTransform="matrix(.54636 0 0 .44695 -116.493 666.159)" gradientUnits="userSpaceOnUse"/><radialGradient xlink:href="#b" id="t" cx="102.143" cy="545.934" r="135" fx="102.143" fy="545.934" gradientTransform="translate(353.625 505.643)scale(.35671)" gradientUnits="userSpaceOnUse"/><radialGradient xlink:href="#a" id="u" cx="102.143" cy="545.934" r="135" fx="102.143" fy="545.934" gradientTransform="matrix(.54636 0 0 .44695 14.059 407.686)" gradientUnits="userSpaceOnUse"/><radialGradient xlink:href="#b" id="w" cx="102.143" cy="545.934" r="135" fx="102.143" fy="545.934" gradientTransform="translate(344.482 243.548)scale(.35671)" gradientUnits="userSpaceOnUse"/><linearGradient id="e"><stop offset="0" style="stop-color:#770900;stop-opacity:1"/><stop offset=".5" style="stop-color:#da101b;stop-opacity:1"/><stop offset=".75" style="stop-color:#d2400f;stop-opacity:1"/><stop offset=".938" style="stop-color:#d44316;stop-opacity:.614583"/><stop offset="1" style="stop-color:#c30000;stop-opacity:.21875"/></linearGradient><linearGradient id="b"><stop offset="0" style="stop-color:#fff;stop-opacity:1"/><stop offset="1" style="stop-color:#fff;stop-opacity:0"/></linearGradient><linearGradient id="d"><stop offset="0" style="stop-color:#081074;stop-opacity:1"/><stop offset=".5" style="stop-color:#5873c2;stop-opacity:1"/><stop offset=".75" style="stop-color:#0f99d2;stop-opacity:1"/><stop offset=".938" style="stop-color:#1660d4;stop-opacity:.6156863"/><stop offset="1" style="stop-color:#414cf6;stop-opacity:.21568628"/></linearGradient><linearGradient id="a"><stop offset="0" style="stop-color:#999;stop-opacity:1"/><stop offset="1" style="stop-color:#999;stop-opacity:0"/></linearGradient><linearGradient xlink:href="#d" id="g" x1="154.286" x2="605.714" y1="535.219" y2="535.219" gradientTransform="translate(-946.083 -374.467)scale(.35671)" gradientUnits="userSpaceOnUse"/><linearGradient xlink:href="#d" id="j" x1="154.286" x2="605.714" y1="535.219" y2="535.219" gradientTransform="translate(-946.083 -374.467)scale(.35671)" gradientUnits="userSpaceOnUse"/><linearGradient xlink:href="#d" id="m" x1="154.286" x2="605.714" y1="535.219" y2="535.219" gradientTransform="translate(-946.083 -374.467)scale(.35671)" gradientUnits="userSpaceOnUse"/><linearGradient xlink:href="#d" id="p" x1="154.286" x2="605.714" y1="535.219" y2="535.219" gradientTransform="translate(-946.083 -374.467)scale(.35671)" gradientUnits="userSpaceOnUse"/><linearGradient xlink:href="#d" id="s" x1="154.286" x2="605.714" y1="535.219" y2="535.219" gradientTransform="translate(-946.083 -374.467)scale(.35671)" gradientUnits="userSpaceOnUse"/><linearGradient xlink:href="#e" id="v" x1="154.286" x2="605.714" y1="535.219" y2="535.219" gradientTransform="translate(-746.061 -204.852)scale(.35671)" gradientUnits="userSpaceOnUse"/></defs><g transform="translate(6.883 -6.163)"><ellipse cx="313.117" cy="326.163" rx="313.117" ry="313.837" style="opacity:.98999999;fill:#ff4500;fill-opacity:1;fill-rule:evenodd;stroke:none;stroke-width:5;stroke-linecap:round;stroke-linejoin:round;stroke-miterlimit:4;stroke-dasharray:none;stroke-dashoffset:0;stroke-opacity:1"/><text xml:space="preserve" x="353.34" y="442.229" style="font-style:normal;font-variant:normal;font-weight:400;font-stretch:normal;font-size:24.70380974px;line-height:0%;font-family:Busorama;-inkscape-font-specification:Busorama;text-align:center;writing-mode:lr-tb;text-anchor:middle;fill:snow;fill-opacity:1;fill-rule:evenodd;stroke:#fff;stroke-width:2.05865049;stroke-miterlimit:4;stroke-dasharray:none;stroke-opacity:1" transform="scale(.88915 1.12467)"><tspan x="353.34" y="442.229" style="font-size:211.53477478px;line-height:1.25;stroke-width:2.05865049">OWL</tspan></text><path d="M359.057 451.525C278.66 554.663 182.892 585.285 139.39 583.828" style="fill:none;stroke:#0a3f6b;stroke-width:16.77659798;stroke-linecap:butt;stroke-linejoin:miter;stroke-miterlimit:4;stroke-dasharray:none;stroke-opacity:1" transform="matrix(.38415 0 0 .36859 160.332 31.093)"/><path d="M531.277 144.515C308.675 311.211 195.699 349.65 127.088 336.185" style="fill:none;stroke:#184086;stroke-width:16.77659798;stroke-linecap:butt;stroke-linejoin:miter;stroke-miterlimit:4;stroke-dasharray:none;stroke-opacity:1" transform="matrix(.38415 0 0 .36859 160.332 31.093)"/><path d="M678.894 454.918c-83.214-40.08-155.338-55.77-152.89-307.01-49.17 99.21-83.193 191.11-166.947 307.01-39.423 146.078-20.947 201.343 14.06 230.681" style="fill:none;stroke:#053f9d;stroke-width:16.77659798;stroke-linecap:butt;stroke-linejoin:miter;stroke-miterlimit:4;stroke-dasharray:none;stroke-opacity:1" transform="matrix(.38415 0 0 .36859 160.332 31.093)"/><g transform="matrix(.24298 0 0 .22502 203.144 118.388)"><ellipse cx="-60.686" cy="910.162" rx="73.759" ry="60.338" style="fill:url(#f);fill-opacity:1;stroke:none;stroke-width:.49416181" transform="matrix(.95041 -.31099 .51542 .85694 0 0)"/><circle cx="-810.533" cy="-183.549" r="80.514" style="fill:url(#g);fill-opacity:1;stroke:none;stroke-width:.35670954" transform="rotate(-132.295)"/><circle cx="390.061" cy="700.383" r="48.156" style="opacity:.87614698;fill:url(#h);fill-opacity:1;stroke:none;stroke-width:.35670954"/></g><g transform="matrix(.24298 0 0 .22502 320.239 36.488)"><ellipse cx="-60.686" cy="910.162" rx="73.759" ry="60.338" style="fill:url(#i);fill-opacity:1;stroke:none;stroke-width:.49416181" transform="matrix(.95041 -.31099 .51542 .85694 0 0)"/><circle cx="-810.533" cy="-183.549" r="80.514" style="fill:url(#j);fill-opacity:1;stroke:none;stroke-width:.35670954" transform="rotate(-132.295)"/><circle cx="390.061" cy="700.383" r="48.156" style="opacity:.87614698;fill:url(#k);fill-opacity:1;stroke:none;stroke-width:.35670954"/></g><g transform="matrix(.24298 0 0 .22502 114.336 82.127)"><ellipse cx="-60.686" cy="910.162" rx="73.759" ry="60.338" style="fill:url(#l);fill-opacity:1;stroke:none;stroke-width:.49416181" transform="matrix(.95041 -.31099 .51542 .85694 0 0)"/><circle cx="-810.533" cy="-183.549" r="80.514" style="fill:url(#m);fill-opacity:1;stroke:none;stroke-width:.35670954" transform="rotate(-132.295)"/><circle cx="390.061" cy="700.383" r="48.156" style="opacity:.87614698;fill:url(#n);fill-opacity:1;stroke:none;stroke-width:.35670954"/></g><g transform="matrix(.24298 0 0 .22502 198.047 35.863)"><ellipse cx="-60.686" cy="910.162" rx="73.759" ry="60.338" style="fill:url(#o);fill-opacity:1;stroke:none;stroke-width:.49416181" transform="matrix(.95041 -.31099 .51542 .85694 0 0)"/><circle cx="-810.533" cy="-183.549" r="80.514" style="fill:url(#p);fill-opacity:1;stroke:none;stroke-width:.35670954" transform="rotate(-132.295)"/><circle cx="390.061" cy="700.383" r="48.156" style="opacity:.87614698;fill:url(#q);fill-opacity:1;stroke:none;stroke-width:.35670954"/></g><g transform="matrix(.24298 0 0 .22502 106.91 -11.027)"><ellipse cx="-60.686" cy="910.162" rx="73.759" ry="60.338" style="fill:url(#r);fill-opacity:1;stroke:none;stroke-width:.49416181" transform="matrix(.95041 -.31099 .51542 .85694 0 0)"/><circle cx="-810.533" cy="-183.549" r="80.514" style="fill:url(#s);fill-opacity:1;stroke:none;stroke-width:.35670954" transform="rotate(-132.295)"/><circle cx="390.061" cy="700.383" r="48.156" style="opacity:.87614698;fill:url(#t);fill-opacity:1;stroke:none;stroke-width:.35670954"/></g><g transform="matrix(.2525 0 0 .23383 263.079 -29.176)"><ellipse cx="69.866" cy="651.689" rx="73.759" ry="60.338" style="fill:url(#u);fill-opacity:1;stroke:none;stroke-width:.49416181" transform="matrix(.95041 -.31099 .51542 .85694 0 0)"/><circle cx="-610.512" cy="-13.935" r="80.514" style="fill:url(#v);fill-opacity:1;stroke:none;stroke-width:.35670954" transform="rotate(-132.295)"/><circle cx="380.918" cy="438.288" r="48.156" style="opacity:.87614698;fill:url(#w);fill-opacity:1;stroke:none;stroke-width:.35670954"/></g></g><path d="M464.297 173.258v30.822c1.546.55 4.085.445 8.412-2.675 1.185-.876 3.983-2.218 6.515-2.492h.063c3.349 0 6.333 1.891 8.412 4.803 2.079 2.91 3.289 6.845 3.289 11.186 0 4.34-1.21 8.289-3.29 11.186-2.079 2.896-5.065 4.741-8.411 4.741-1.167-.029-2.387-.468-3.542-.972-1.155-.504-2.228-1.053-2.91-1.398-.043-.03-.085-.04-.126-.063-4.327-3.12-6.866-3.224-8.412-2.675v30.397h24.224c.308 0 .613.166.76.425 1.076 2.07.867 5.361-2.784 10.092l-.063.122c-.38.688-.928 1.634-1.391 2.614-.485 1.026-.874 2.077-.886 2.736 0 2.583 1.604 4.969 4.301 6.748 2.697 1.78 6.486 2.918 10.689 2.918s8.008-1.14 10.689-2.918c2.66-1.765 4.213-4.125 4.237-6.687v-.063c-.242-1.908-1.705-4.636-2.277-5.35-3.745-4.8-3.861-8.14-2.782-10.213a.868.868 0 0 1 .759-.426h36.683v-71.189c0-6.466-5.416-11.672-12.143-11.672z" style="color:#000;display:inline;overflow:visible;visibility:visible;fill:#b3b3b3;fill-opacity:1;fill-rule:nonzero;stroke:none;stroke-width:3.51436639;marker:none;enable-background:accumulate"/></svg>