<svg xmlns="http://www.w3.org/2000/svg" xmlns:xlink="http://www.w3.org/1999/xlink" width="213.333" height="213.333" version="1.0"><desc>Picture of a blue sphere (circle with 3D highlighting)</desc><defs><radialGradient xlink:href="#a" id="f" cx="102.143" cy="545.934" r="135" fx="102.143" fy="545.934" gradientTransform="matrix(.54636 0 0 .44695 -116.493 666.159)" gradientUnits="userSpaceOnUse"/><radialGradient xlink:href="#b" id="h" cx="102.143" cy="545.934" r="135" fx="102.143" fy="545.934" gradientTransform="translate(353.625 505.643)scale(.35671)" gradientUnits="userSpaceOnUse"/><radialGradient xlink:href="#a" id="i" cx="102.143" cy="545.934" r="135" fx="102.143" fy="545.934" gradientTransform="matrix(.54636 0 0 .44695 -116.493 666.159)" gradientUnits="userSpaceOnUse"/><radialGradient xlink:href="#b" id="k" cx="102.143" cy="545.934" r="135" fx="102.143" fy="545.934" gradientTransform="translate(353.625 505.643)scale(.35671)" gradientUnits="userSpaceOnUse"/><radialGradient xlink:href="#a" id="l" cx="102.143" cy="545.934" r="135" fx="102.143" fy="545.934" gradientTransform="matrix(.54636 0 0 .44695 -116.493 666.159)" gradientUnits="userSpaceOnUse"/><radialGradient xlink:href="#b" id="n" cx="102.143" cy="545.934" r="135" fx="102.143" fy="545.934" gradientTransform="translate(353.625 505.643)scale(.35671)" gradientUnits="userSpaceOnUse"/><radialGradient xlink:href="#a" id="o" cx="102.143" cy="545.934" r="135" fx="102.143" fy="545.934" gradientTransform="matrix(.54636 0 0 .44695 -116.493 666.159)" gradientUnits="userSpaceOnUse"/><radialGradient xlink:href="#b" id="q" cx="102.143" cy="545.934" r="135" fx="102.143" fy="545.934" gradientTransform="translate(353.625 505.643)scale(.35671)" gradientUnits="userSpaceOnUse"/><radialGradient xlink:href="#a" id="r" cx="102.143" cy="545.934" r="135" fx="102.143" fy="545.934" gradientTransform="matrix(.54636 0 0 .44695 -116.493 666.159)" gradientUnits="userSpaceOnUse"/><radialGradient xlink:href="#b" id="t" cx="102.143" cy="545.934" r="135" fx="102.143" fy="545.934" gradientTransform="translate(353.625 505.643)scale(.35671)" gradientUnits="userSpaceOnUse"/><radialGradient xlink:href="#a" id="u" cx="102.143" cy="545.934" r="135" fx="102.143" fy="545.934" gradientTransform="matrix(.54636 0 0 .44695 14.059 407.686)" gradientUnits="userSpaceOnUse"/><radialGradient xlink:href="#b" id="w" cx="102.143" cy="545.934" r="135" fx="102.143" fy="545.934" gradientTransform="translate(344.482 243.548)scale(.35671)" gradientUnits="userSpaceOnUse"/><linearGradient id="e"><stop offset="0" style="stop-color:#770900;stop-opacity:1"/><stop offset=".5" style="stop-color:#da101b;stop-opacity:1"/><stop offset=".75" style="stop-color:#d2400f;stop-opacity:1"/><stop offset=".938" style="stop-color:#d44316;stop-opacity:.614583"/><stop offset="1" style="stop-color:#c30000;stop-opacity:.21875"/></linearGradient><linearGradient id="b"><stop offset="0" style="stop-color:#fff;stop-opacity:1"/><stop offset="1" style="stop-color:#fff;stop-opacity:0"/></linearGradient><linearGradient id="d"><stop offset="0" style="stop-color:#081074;stop-opacity:1"/><stop offset=".5" style="stop-color:#5873c2;stop-opacity:1"/><stop offset=".75" style="stop-color:#0f99d2;stop-opacity:1"/><stop offset=".938" style="stop-color:#1660d4;stop-opacity:.6156863"/><stop offset="1" style="stop-color:#414cf6;stop-opacity:.21568628"/></linearGradient><linearGradient id="a"><stop offset="0" style="stop-color:#999;stop-opacity:1"/><stop offset="1" style="stop-color:#999;stop-opacity:0"/></linearGradient><linearGradient xlink:href="#d" id="g" x1="154.286" x2="605.714" y1="535.219" y2="535.219" gradientTransform="translate(-946.083 -374.467)scale(.35671)" gradientUnits="userSpaceOnUse"/><linearGradient xlink:href="#d" id="j" x1="154.286" x2="605.714" y1="535.219" y2="535.219" gradientTransform="translate(-946.083 -374.467)scale(.35671)" gradientUnits="userSpaceOnUse"/><linearGradient xlink:href="#d" id="m" x1="154.286" x2="605.714" y1="535.219" y2="535.219" gradientTransform="translate(-946.083 -374.467)scale(.35671)" gradientUnits="userSpaceOnUse"/><linearGradient xlink:href="#d" id="p" x1="154.286" x2="605.714" y1="535.219" y2="535.219" gradientTransform="translate(-946.083 -374.467)scale(.35671)" gradientUnits="userSpaceOnUse"/><linearGradient xlink:href="#d" id="s" x1="154.286" x2="605.714" y1="535.219" y2="535.219" gradientTransform="translate(-946.083 -374.467)scale(.35671)" gradientUnits="userSpaceOnUse"/><linearGradient xlink:href="#e" id="v" x1="154.286" x2="605.714" y1="535.219" y2="535.219" gradientTransform="translate(-746.061 -204.852)scale(.35671)" gradientUnits="userSpaceOnUse"/></defs><path d="M-.225 90.7h215.019v123.765H-.225z" style="fill:#ff4500;fill-opacity:1;fill-rule:evenodd;stroke:none;stroke-width:1.06666672" transform="rotate(.026)skewX(-.03)"/><text xml:space="preserve" x="121.686" y="174.918" style="font-style:normal;font-variant:normal;font-weight:400;font-stretch:normal;font-size:12.80000019px;line-height:0%;font-family:Busorama;-inkscape-font-specification:Busorama;text-align:center;writing-mode:lr-tb;text-anchor:middle;fill:snow;fill-opacity:1;fill-rule:evenodd;stroke:#fff;stroke-width:1.06666648;stroke-miterlimit:4;stroke-dasharray:none;stroke-opacity:1" transform="scale(.88915 1.12467)"><tspan x="121.686" y="174.918" style="font-size:109.60435486px;line-height:1.25;stroke-width:1.06666648">OWL</tspan></text><path d="M359.057 451.525C278.66 554.663 182.892 585.285 139.39 583.828" style="fill:none;stroke:#0a3f6b;stroke-width:16.77659798;stroke-linecap:butt;stroke-linejoin:miter;stroke-miterlimit:4;stroke-dasharray:none;stroke-opacity:1" transform="matrix(.19473 0 0 .18684 31.42 -8.699)"/><path d="M531.277 144.515C308.675 311.211 195.699 349.65 127.088 336.185" style="fill:none;stroke:#184086;stroke-width:16.77659798;stroke-linecap:butt;stroke-linejoin:miter;stroke-miterlimit:4;stroke-dasharray:none;stroke-opacity:1" transform="matrix(.19473 0 0 .18684 31.42 -8.699)"/><path d="M678.894 454.918c-83.214-40.08-155.338-55.77-152.89-307.01-49.17 99.21-83.193 191.11-166.947 307.01-39.423 146.078-20.947 201.343 14.06 230.681" style="fill:none;stroke:#053f9d;stroke-width:16.77659798;stroke-linecap:butt;stroke-linejoin:miter;stroke-miterlimit:4;stroke-dasharray:none;stroke-opacity:1" transform="matrix(.19473 0 0 .18684 31.42 -8.699)"/><g transform="matrix(.12317 0 0 .11406 53.122 35.55)"><ellipse cx="-60.686" cy="910.162" rx="73.759" ry="60.338" style="fill:url(#f);fill-opacity:1;stroke:none;stroke-width:.49416181" transform="matrix(.95041 -.31099 .51542 .85694 0 0)"/><circle cx="-810.533" cy="-183.549" r="80.514" style="fill:url(#g);fill-opacity:1;stroke:none;stroke-width:.35670954" transform="rotate(-132.295)"/><circle cx="390.061" cy="700.383" r="48.156" style="opacity:.87614698;fill:url(#h);fill-opacity:1;stroke:none;stroke-width:.35670954"/></g><g transform="matrix(.12317 0 0 .11406 112.478 -5.964)"><ellipse cx="-60.686" cy="910.162" rx="73.759" ry="60.338" style="fill:url(#i);fill-opacity:1;stroke:none;stroke-width:.49416181" transform="matrix(.95041 -.31099 .51542 .85694 0 0)"/><circle cx="-810.533" cy="-183.549" r="80.514" style="fill:url(#j);fill-opacity:1;stroke:none;stroke-width:.35670954" transform="rotate(-132.295)"/><circle cx="390.061" cy="700.383" r="48.156" style="opacity:.87614698;fill:url(#k);fill-opacity:1;stroke:none;stroke-width:.35670954"/></g><g transform="matrix(.12317 0 0 .11406 8.105 17.17)"><ellipse cx="-60.686" cy="910.162" rx="73.759" ry="60.338" style="fill:url(#l);fill-opacity:1;stroke:none;stroke-width:.49416181" transform="matrix(.95041 -.31099 .51542 .85694 0 0)"/><circle cx="-810.533" cy="-183.549" r="80.514" style="fill:url(#m);fill-opacity:1;stroke:none;stroke-width:.35670954" transform="rotate(-132.295)"/><circle cx="390.061" cy="700.383" r="48.156" style="opacity:.87614698;fill:url(#n);fill-opacity:1;stroke:none;stroke-width:.35670954"/></g><g transform="matrix(.12317 0 0 .11406 50.539 -6.281)"><ellipse cx="-60.686" cy="910.162" rx="73.759" ry="60.338" style="fill:url(#o);fill-opacity:1;stroke:none;stroke-width:.49416181" transform="matrix(.95041 -.31099 .51542 .85694 0 0)"/><circle cx="-810.533" cy="-183.549" r="80.514" style="fill:url(#p);fill-opacity:1;stroke:none;stroke-width:.35670954" transform="rotate(-132.295)"/><circle cx="390.061" cy="700.383" r="48.156" style="opacity:.87614698;fill:url(#q);fill-opacity:1;stroke:none;stroke-width:.35670954"/></g><g transform="matrix(.12317 0 0 .11406 4.341 -30.05)"><ellipse cx="-60.686" cy="910.162" rx="73.759" ry="60.338" style="fill:url(#r);fill-opacity:1;stroke:none;stroke-width:.49416181" transform="matrix(.95041 -.31099 .51542 .85694 0 0)"/><circle cx="-810.533" cy="-183.549" r="80.514" style="fill:url(#s);fill-opacity:1;stroke:none;stroke-width:.35670954" transform="rotate(-132.295)"/><circle cx="390.061" cy="700.383" r="48.156" style="opacity:.87614698;fill:url(#t);fill-opacity:1;stroke:none;stroke-width:.35670954"/></g><g transform="matrix(.12799 0 0 .11853 83.503 -39.25)"><ellipse cx="69.866" cy="651.689" rx="73.759" ry="60.338" style="fill:url(#u);fill-opacity:1;stroke:none;stroke-width:.49416181" transform="matrix(.95041 -.31099 .51542 .85694 0 0)"/><circle cx="-610.512" cy="-13.935" r="80.514" style="fill:url(#v);fill-opacity:1;stroke:none;stroke-width:.35670954" transform="rotate(-132.295)"/><circle cx="380.918" cy="438.288" r="48.156" style="opacity:.87614698;fill:url(#w);fill-opacity:1;stroke:none;stroke-width:.35670954"/></g><path d="M164.412 3.763v16.92c.848.301 2.242.244 4.618-1.469.65-.481 2.186-1.217 3.576-1.368h.035c1.838 0 3.476 1.038 4.617 2.636 1.142 1.599 1.806 3.758 1.806 6.141s-.664 4.55-1.806 6.14c-1.141 1.59-2.78 2.604-4.617 2.604-.641-.017-1.31-.258-1.945-.534-.634-.277-1.223-.578-1.597-.768-.024-.016-.047-.021-.07-.034-2.374-1.713-3.769-1.77-4.617-1.469V49.25h13.298c.169 0 .336.091.416.233.591 1.136.477 2.943-1.527 5.54-.01.016-.025.049-.035.067-.209.378-.51.897-.764 1.435-.266.563-.48 1.14-.486 1.502 0 1.418.88 2.727 2.361 3.704 1.48.977 3.56 1.602 5.868 1.602 2.307 0 4.396-.625 5.867-1.602 1.46-.968 2.313-2.264 2.327-3.67v-.035c-.134-1.048-.936-2.545-1.25-2.937-2.057-2.635-2.12-4.468-1.528-5.606a.477.477 0 0 1 .417-.234h20.137v-39.08c0-3.549-2.973-6.407-6.666-6.407z" style="color:#000;display:inline;overflow:visible;visibility:visible;fill:#b3b3b3;fill-opacity:1;fill-rule:nonzero;stroke:none;stroke-width:1.92921114;marker:none;enable-background:accumulate"/></svg>