<svg xmlns="http://www.w3.org/2000/svg" width="341.333" height="341.333"><text xml:space="preserve" x="205.566" y="226.599" style="font-style:normal;font-variant:normal;font-weight:400;font-stretch:condensed;font-size:12.80000019px;line-height:0%;font-family:Impact;-inkscape-font-specification:&quot;Impact Condensed&quot;;text-align:start;writing-mode:lr-tb;text-anchor:start;fill:#86ba0c;fill-opacity:1;stroke:none;stroke-width:.74274063;stroke-miterlimit:4;stroke-dasharray:none;stroke-opacity:1" transform="matrix(.97593 0 0 1.02466 -195.48 101.168)"><tspan x="205.566" y="226.599" style="font-size:191.77813721px;line-height:1.25;fill:#86ba0c;fill-opacity:1;stroke-width:.74274063;stroke:none">O</tspan></text><g style="overflow:visible"><g style="image-rendering:optimizeQuality;shape-rendering:geometricPrecision;text-rendering:geometricPrecision"><path d="M82.227 19.022C132.244 41.56 143.15 0 143.15 0s-9.5 52.13-53.355 73.423c-8.935 4.344-14.484 6.673-14.484 6.673L3.469 45.076l71.843-29.461c-.001 0-1.734-.49 6.915 3.407z" style="fill:#86ba0c;stroke-width:1.06666672" transform="translate(97.618 -.844)"/><path d="M62.756 88.805v72.148L0 126.977V56.906z" style="fill:#ef7c00" transform="translate(97.618 -.844)scale(1.06667)"/><path d="M76.871 88.805v72.148l62.752-33.976V56.906z" style="fill:#bd1789" transform="translate(97.618 -.844)scale(1.06667)"/></g></g><text xml:space="preserve" x="317.755" y="225.599" style="font-style:normal;font-variant:normal;font-weight:400;font-stretch:condensed;font-size:12.80000019px;line-height:0%;font-family:Impact;-inkscape-font-specification:&quot;Impact Condensed&quot;;text-align:start;writing-mode:lr-tb;text-anchor:start;fill:#ef7c00;fill-opacity:1;stroke:none;stroke-width:.74274063;stroke-miterlimit:4;stroke-dasharray:none;stroke-opacity:1" transform="matrix(.95822 0 0 1.0436 -195.48 101.168)"><tspan x="317.755" y="225.599" style="font-size:195.323349px;line-height:1.25;fill:#ef7c00;fill-opacity:1;stroke-width:.74274063;stroke:none">W</tspan></text><text xml:space="preserve" x="475.718" y="225.092" style="font-style:normal;font-variant:normal;font-weight:400;font-stretch:condensed;font-size:12.80000019px;line-height:0%;font-family:Impact;-inkscape-font-specification:&quot;Impact Condensed&quot;;text-align:start;writing-mode:lr-tb;text-anchor:start;fill:#bd1789;fill-opacity:1;stroke:none;stroke-width:.74274063;stroke-miterlimit:4;stroke-dasharray:none;stroke-opacity:1" transform="matrix(.95607 0 0 1.04595 -195.48 101.168)"><tspan x="475.718" y="225.092" style="font-size:195.76197815px;line-height:1.25;fill:#bd1789;fill-opacity:1;stroke-width:.74274063;stroke:none">L</tspan></text><path d="M452.732-95.587v29.882c1.499.532 3.96.43 8.156-2.594 1.149-.85 3.86-2.15 6.316-2.416h.06c3.248 0 6.14 1.834 8.156 4.656 2.016 2.822 3.189 6.637 3.189 10.845 0 4.208-1.172 8.036-3.189 10.844-2.016 2.808-4.911 4.598-8.155 4.598-1.131-.03-2.314-.455-3.434-.944-1.12-.488-2.16-1.02-2.82-1.355-.043-.029-.084-.037-.123-.06-4.195-3.025-6.657-3.127-8.155-2.594v29.469h23.484c.299 0 .594.162.736.413 1.044 2.006.842 5.197-2.698 9.784l-.061.118c-.369.667-.9 1.584-1.35 2.534-.469.995-.846 2.014-.858 2.652 0 2.505 1.555 4.818 4.17 6.543 2.615 1.725 6.288 2.829 10.363 2.829 4.074 0 7.763-1.105 10.363-2.83 2.578-1.71 4.084-3.999 4.108-6.482-.002-.03.002-.044 0-.06-.235-1.851-1.653-4.495-2.208-5.188-3.631-4.654-3.743-7.89-2.698-9.901a.842.842 0 0 1 .736-.413h35.565v-69.017c0-6.269-5.251-11.316-11.773-11.316z" style="color:#000;display:inline;overflow:visible;visibility:visible;fill:#b3b3b3;fill-opacity:1;fill-rule:nonzero;stroke:none;stroke-width:3.40712976;marker:none;enable-background:accumulate" transform="translate(-195.48 101.168)"/></svg>