<?xml version="1.0" encoding="UTF-8" standalone="no"?>
<!-- Created with Inkscape (http://www.inkscape.org/) -->

<svg
   xmlns:dc="http://purl.org/dc/elements/1.1/"
   xmlns:cc="http://creativecommons.org/ns#"
   xmlns:rdf="http://www.w3.org/1999/02/22-rdf-syntax-ns#"
   xmlns:svg="http://www.w3.org/2000/svg"
   xmlns="http://www.w3.org/2000/svg"
   xmlns:sodipodi="http://sodipodi.sourceforge.net/DTD/sodipodi-0.dtd"
   xmlns:inkscape="http://www.inkscape.org/namespaces/inkscape"
   width="341.33334"
   height="341.33334"
   id="svg2"
   version="1.1"
   inkscape:version="0.92.1 r15371"
   sodipodi:docname="ic_splash.svg"
   inkscape:export-filename="owl.png"
   inkscape:export-xdpi="57.252365"
   inkscape:export-ydpi="57.252365">
  <defs
     id="defs" />
  <sodipodi:namedview
     id="base"
     pagecolor="#ffffff"
     bordercolor="#666666"
     borderopacity="1.0"
     inkscape:pageopacity="0.0"
     inkscape:pageshadow="2"
     inkscape:zoom="1.4686528"
     inkscape:cx="269.92256"
     inkscape:cy="252.46834"
     inkscape:document-units="px"
     inkscape:current-layer="layer1"
     showgrid="false"
     inkscape:window-width="1403"
     inkscape:window-height="914"
     inkscape:window-x="274"
     inkscape:window-y="52"
     inkscape:window-maximized="0"
     fit-margin-top="0"
     fit-margin-left="0"
     fit-margin-right="0"
     fit-margin-bottom="0" />
  <metadata
     id="metadata7">
    <rdf:RDF>
      <cc:Work
         rdf:about="">
        <dc:format>image/svg+xml</dc:format>
        <dc:type
           rdf:resource="http://purl.org/dc/dcmitype/StillImage" />
        <dc:title />
      </cc:Work>
    </rdf:RDF>
  </metadata>
  <g
     inkscape:label="Layer"
     inkscape:groupmode="layer"
     id="layer1"
     transform="translate(-195.47945,101.16826)">
    <text
       xml:space="preserve"
       style="font-style:normal;font-variant:normal;font-weight:normal;font-stretch:condensed;font-size:12.80000019px;line-height:0%;font-family:Impact;-inkscape-font-specification:'Impact Condensed';text-align:start;writing-mode:lr-tb;text-anchor:start;fill:#86ba0c;fill-opacity:1;stroke:none;stroke-width:0.74274063;stroke-miterlimit:4;stroke-dasharray:none;stroke-opacity:1;"
       x="205.56631"
       y="226.59929"
       id="text2819"
       transform="scale(0.97593006,1.0246636)"><tspan
         sodipodi:role="line"
         id="tspan3009"
         x="205.56631"
         y="226.59929"
         style="font-size:191.77813721px;line-height:1.25;fill:#86ba0c;fill-opacity:1;stroke-width:0.74274063;stroke:none;">O</tspan></text>
    <g
       style="overflow:visible"
       id="g3012"
       transform="translate(293.09706,-102.01205)">
      <g
         id="g2998"
         style="image-rendering:optimizeQuality;shape-rendering:geometricPrecision;text-rendering:geometricPrecision">
        <g
           id="g3000">
          <path
             id="path3002"
             d="M 82.2272,19.021867 C 132.24427,41.560533 143.14987,0 143.14987,0 c 0,0 -9.49974,52.129067 -53.35467,73.422933 C 80.859733,77.767467 75.310933,80.096 75.310933,80.096 L 3.4688,45.076267 75.312,15.614933 c -0.0011,0 -1.7344,-0.490666 6.9152,3.406934 z"
             inkscape:connector-curvature="0"
             style="fill:#86ba0c;stroke-width:1.06666672" />
          <polygon
             id="polygon3004"
             points="62.756,88.805 62.756,160.953 0,126.977 0,56.906 "
             style="fill:#ef7c00"
             transform="scale(1.0666667)" />
          <polygon
             id="polygon3006"
             points="76.871,88.805 76.871,160.953 139.623,126.977 139.623,56.906 "
             style="fill:#bd1789"
             transform="scale(1.0666667)" />
        </g>
      </g>
    </g>
    <text
       transform="scale(0.95821651,1.0436055)"
       id="text3001"
       y="225.59915"
       x="317.75461"
       style="font-style:normal;font-variant:normal;font-weight:normal;font-stretch:condensed;font-size:12.80000019px;line-height:0%;font-family:Impact;-inkscape-font-specification:'Impact Condensed';text-align:start;writing-mode:lr-tb;text-anchor:start;fill:#ef7c00;fill-opacity:1;stroke:none;stroke-width:0.74274063;stroke-miterlimit:4;stroke-dasharray:none;stroke-opacity:1;"
       xml:space="preserve"><tspan
         sodipodi:role="line"
         id="tspan3011"
         x="317.75461"
         y="225.59915"
         style="font-size:195.323349px;line-height:1.25;fill:#ef7c00;fill-opacity:1;stroke-width:0.74274063;stroke:none;">W</tspan></text>
    <text
       xml:space="preserve"
       style="font-style:normal;font-variant:normal;font-weight:normal;font-stretch:condensed;font-size:12.80000019px;line-height:0%;font-family:Impact;-inkscape-font-specification:'Impact Condensed';text-align:start;writing-mode:lr-tb;text-anchor:start;fill:#bd1789;fill-opacity:1;stroke:none;stroke-width:0.74274063;stroke-miterlimit:4;stroke-dasharray:none;stroke-opacity:1;"
       x="475.71814"
       y="225.09203"
       id="text3005"
       transform="scale(0.95606946,1.0459491)"><tspan
         sodipodi:role="line"
         id="tspan3013"
         x="475.71814"
         y="225.09203"
         style="font-size:195.76197815px;line-height:1.25;fill:#bd1789;fill-opacity:1;stroke-width:0.74274063;stroke:none;">L</tspan></text>
    <path
       d="m 452.73246,-95.587158 v 29.88178 c 1.4982,0.532722 3.96034,0.430841 8.15526,-2.593293 1.14897,-0.850056 3.86097,-2.150712 6.31578,-2.416487 0.021,-7.19e-4 0.0409,-7.19e-4 0.0614,0 3.24686,0 6.13987,1.833677 8.15527,4.656153 2.01546,2.822452 3.18854,6.636532 3.18854,10.844641 0,4.208128 -1.17213,8.036455 -3.18854,10.844667 -2.01638,2.808179 -4.91127,4.597245 -8.15527,4.597245 -1.13139,-0.02873 -2.31431,-0.454539 -3.43378,-0.943068 -1.11951,-0.488528 -2.16011,-1.020548 -2.82063,-1.355555 -0.0426,-0.02889 -0.0836,-0.0374 -0.1225,-0.06045 -4.19497,-3.024167 -6.6571,-3.126049 -8.1553,-2.593327 v 13.261186 6.011558 10.196317 h 6.68364 6.25445 10.54668 c 0.29847,0 0.59369,0.161341 0.73582,0.41277 1.04353,2.005973 0.84122,5.197258 -2.69801,9.7835481 -0.0157,0.028731 -0.0443,0.086339 -0.0614,0.1180818 -0.36872,0.6671212 -0.90004,1.5839851 -1.349,2.5348206 -0.46975,0.9946266 -0.84719,2.0131707 -0.85844,2.65206532 0,2.50400568 1.55446,4.81702568 4.1696,6.54214118 2.61517,1.725416 6.28808,2.8292065 10.36275,2.8292065 4.07465,0 7.76338,-1.104659 10.36273,-2.8292065 2.5789,-1.7107185 4.08474,-3.9995375 4.10828,-6.48309915 -0.002,-0.0287311 0.002,-0.0432596 0,-0.0604511 -0.23524,-1.85041235 -1.6532,-4.49441115 -2.20742,-5.18687015 -3.63161,-4.6542818 -3.74381,-7.8910806 -2.69801,-9.9013626 0.14196,-0.253484 0.43727,-0.417964 0.73583,-0.412769 h 35.56436 v -69.016719 c 0,-6.269166 -5.25074,-11.316159 -11.77302,-11.316159 z"
       inkscape:connector-curvature="0"
       id="path4113"
       style="color:#000000;display:inline;overflow:visible;visibility:visible;fill:#b3b3b3;fill-opacity:1;fill-rule:nonzero;stroke:none;stroke-width:3.40712976;marker:none;enable-background:accumulate" />
  </g>
  <style
     id="style8"
     type="text/css">
      .Border { fill: lightGray; stroke: black; stroke-width: 4; }
      .Label { font-size:24; font-family:Arial; fill:black; }
   </style>
</svg>
