<svg xmlns="http://www.w3.org/2000/svg" xmlns:xlink="http://www.w3.org/1999/xlink" width="200" height="200" version="1.0"><desc>Picture of a blue sphere (circle with 3D highlighting)</desc><defs><radialGradient xlink:href="#e" id="g" cx="102.143" cy="545.934" r="135" fx="102.143" fy="545.934" gradientUnits="userSpaceOnUse"/><radialGradient xlink:href="#f" id="i" cx="102.143" cy="545.934" r="135" fx="102.143" fy="545.934" gradientUnits="userSpaceOnUse"/><radialGradient xlink:href="#e" id="j" cx="102.143" cy="545.934" r="135" fx="102.143" fy="545.934" gradientUnits="userSpaceOnUse"/><radialGradient xlink:href="#f" id="l" cx="102.143" cy="545.934" r="135" fx="102.143" fy="545.934" gradientUnits="userSpaceOnUse"/><radialGradient xlink:href="#e" id="m" cx="102.143" cy="545.934" r="135" fx="102.143" fy="545.934" gradientUnits="userSpaceOnUse"/><radialGradient xlink:href="#f" id="o" cx="102.143" cy="545.934" r="135" fx="102.143" fy="545.934" gradientUnits="userSpaceOnUse"/><radialGradient xlink:href="#e" id="p" cx="102.143" cy="545.934" r="135" fx="102.143" fy="545.934" gradientUnits="userSpaceOnUse"/><radialGradient xlink:href="#f" id="C" cx="102.143" cy="545.934" r="135" fx="102.143" fy="545.934" gradientUnits="userSpaceOnUse"/><radialGradient xlink:href="#e" id="D" cx="102.143" cy="545.934" r="135" fx="102.143" fy="545.934" gradientUnits="userSpaceOnUse"/><radialGradient xlink:href="#f" id="F" cx="102.143" cy="545.934" r="135" fx="102.143" fy="545.934" gradientUnits="userSpaceOnUse"/><radialGradient xlink:href="#e" id="G" cx="102.143" cy="545.934" r="135" fx="102.143" fy="545.934" gradientUnits="userSpaceOnUse"/><radialGradient xlink:href="#f" id="I" cx="102.143" cy="545.934" r="135" fx="102.143" fy="545.934" gradientUnits="userSpaceOnUse"/><linearGradient id="c"><stop offset="0" style="stop-color:#770900;stop-opacity:1"/><stop offset=".5" style="stop-color:#da101b;stop-opacity:1"/><stop offset=".75" style="stop-color:#d2400f;stop-opacity:1"/><stop offset=".938" style="stop-color:#d44316;stop-opacity:.614583"/><stop offset="1" style="stop-color:#c30000;stop-opacity:.21875"/></linearGradient><linearGradient id="f"><stop offset="0" style="stop-color:#fff;stop-opacity:1"/><stop offset="1" style="stop-color:#fff;stop-opacity:0"/></linearGradient><linearGradient id="a"><stop offset="0" style="stop-color:#081074;stop-opacity:1"/><stop offset=".5" style="stop-color:#5873c2;stop-opacity:1"/><stop offset=".75" style="stop-color:#0f99d2;stop-opacity:1"/><stop offset=".938" style="stop-color:#1660d4;stop-opacity:.6156863"/><stop offset="1" style="stop-color:#414cf6;stop-opacity:.21568628"/></linearGradient><linearGradient id="e"><stop offset="0" style="stop-color:#999;stop-opacity:1"/><stop offset="1" style="stop-color:#999;stop-opacity:0"/></linearGradient><linearGradient xlink:href="#a" id="h" x1="154.286" x2="605.714" y1="535.219" y2="535.219" gradientUnits="userSpaceOnUse"/><linearGradient xlink:href="#a" id="k" x1="154.286" x2="605.714" y1="535.219" y2="535.219" gradientUnits="userSpaceOnUse"/><linearGradient xlink:href="#a" id="n" x1="154.286" x2="605.714" y1="535.219" y2="535.219" gradientUnits="userSpaceOnUse"/><linearGradient xlink:href="#a" id="q" x1="154.286" x2="605.714" y1="535.219" y2="535.219" gradientUnits="userSpaceOnUse"/><linearGradient xlink:href="#a" id="E" x1="154.286" x2="605.714" y1="535.219" y2="535.219" gradientUnits="userSpaceOnUse"/><linearGradient xlink:href="#c" id="H" x1="154.286" x2="605.714" y1="535.219" y2="535.219" gradientUnits="userSpaceOnUse"/></defs><path d="M-.211 85.031H201.37v116.03H-.211z" style="fill:#ff7200;fill-opacity:1;fill-rule:evenodd;stroke:none" transform="rotate(.026)skewX(-.03)"/><text xml:space="preserve" x="114.08" y="163.985" style="font-size:102.75408247px;font-style:normal;font-variant:normal;font-weight:400;font-stretch:normal;text-align:center;line-height:125%;writing-mode:lr;text-anchor:middle;fill:snow;fill-opacity:1;fill-rule:evenodd;stroke:#fff;stroke-width:.99999987999999995;stroke-miterlimit:4;stroke-opacity:1;stroke-dasharray:none;font-family:Busorama;-inkscape-font-specification:Busorama" transform="scale(.88915 1.12467)"><tspan>Files</tspan></text><path d="M336.616 423.305c-75.373 96.692-165.154 125.4-205.938 124.034" style="fill:none;stroke:#0a3f6b;stroke-width:15.72805977;stroke-linecap:butt;stroke-linejoin:miter;stroke-miterlimit:4;stroke-opacity:1;stroke-dasharray:none" transform="matrix(.19473 0 0 .18684 29.457 -8.155)"/><path d="M498.072 135.483c-208.69 156.277-314.605 192.314-378.927 179.69" style="fill:none;stroke:#184086;stroke-width:15.72805977;stroke-linecap:butt;stroke-linejoin:miter;stroke-miterlimit:4;stroke-opacity:1;stroke-dasharray:none" transform="matrix(.19473 0 0 .18684 29.457 -8.155)"/><path d="M636.463 426.485c-78.013-37.574-145.63-52.283-143.333-287.822-46.099 93.01-77.994 179.166-156.514 287.822-36.96 136.949-19.638 188.76 13.18 216.264" style="fill:none;stroke:#053f9d;stroke-width:15.72805977;stroke-linecap:butt;stroke-linejoin:miter;stroke-miterlimit:4;stroke-opacity:1;stroke-dasharray:none" transform="matrix(.19473 0 0 .18684 29.457 -8.155)"/><path d="M237.143 545.934c0 74.558-60.442 135-135 135-74.559 0-135-60.442-135-135 0-74.559 60.441-135 135-135 74.558 0 135 60.441 135 135z" style="fill:url(#g);fill-opacity:1;stroke:none" transform="matrix(.05996 -.01817 .0266 .04096 76.664 98.246)"/><path d="M605.714 535.22c0 124.658-101.055 225.714-225.714 225.714-124.659 0-225.714-101.056-225.714-225.715 0-124.658 101.055-225.714 225.714-225.714 124.659 0 225.714 101.056 225.714 225.714z" style="fill:url(#h);fill-opacity:1;stroke:none" transform="matrix(-.02772 -.02821 .03047 -.02567 91.333 135.108)"/><path d="M237.143 545.934c0 74.558-60.442 135-135 135-74.559 0-135-60.442-135-135 0-74.559 60.441-135 135-135 74.558 0 135 60.441 135 135z" style="opacity:.87614698;fill:url(#i);fill-opacity:1;stroke:none" transform="matrix(.04119 0 0 .03814 90.635 87.399)"/><path d="M237.143 545.934c0 74.558-60.442 135-135 135-74.559 0-135-60.442-135-135 0-74.559 60.441-135 135-135 74.558 0 135 60.441 135 135z" style="fill:url(#j);fill-opacity:1;stroke:none" transform="matrix(.05996 -.01817 .0266 .04096 132.31 59.326)"/><path d="M605.714 535.22c0 124.658-101.055 225.714-225.714 225.714-124.659 0-225.714-101.056-225.714-225.715 0-124.658 101.055-225.714 225.714-225.714 124.659 0 225.714 101.056 225.714 225.714z" style="fill:url(#k);fill-opacity:1;stroke:none" transform="matrix(-.02772 -.02821 .03047 -.02567 146.98 96.187)"/><path d="M237.143 545.934c0 74.558-60.442 135-135 135-74.559 0-135-60.442-135-135 0-74.559 60.441-135 135-135 74.558 0 135 60.441 135 135z" style="opacity:.87614698;fill:url(#l);fill-opacity:1;stroke:none" transform="matrix(.04119 0 0 .03814 146.28 48.478)"/><path d="M237.143 545.934c0 74.558-60.442 135-135 135-74.559 0-135-60.442-135-135 0-74.559 60.441-135 135-135 74.558 0 135 60.441 135 135z" style="fill:url(#m);fill-opacity:1;stroke:none" transform="matrix(.05996 -.01817 .0266 .04096 34.46 81.014)"/><path d="M605.714 535.22c0 124.658-101.055 225.714-225.714 225.714-124.659 0-225.714-101.056-225.714-225.715 0-124.658 101.055-225.714 225.714-225.714 124.659 0 225.714 101.056 225.714 225.714z" style="fill:url(#n);fill-opacity:1;stroke:none" transform="matrix(-.02772 -.02821 .03047 -.02567 49.13 117.876)"/><path d="M237.143 545.934c0 74.558-60.442 135-135 135-74.559 0-135-60.442-135-135 0-74.559 60.441-135 135-135 74.558 0 135 60.441 135 135z" style="opacity:.87614698;fill:url(#o);fill-opacity:1;stroke:none" transform="matrix(.04119 0 0 .03814 48.431 70.167)"/><path d="M237.143 545.934c0 74.558-60.442 135-135 135-74.559 0-135-60.442-135-135 0-74.559 60.441-135 135-135 74.558 0 135 60.441 135 135z" style="fill:url(#p);fill-opacity:1;stroke:none" transform="matrix(.05996 -.01817 .0266 .04096 74.242 59.029)"/><path d="M605.714 535.22c0 124.658-101.055 225.714-225.714 225.714-124.659 0-225.714-101.056-225.714-225.715 0-124.658 101.055-225.714 225.714-225.714 124.659 0 225.714 101.056 225.714 225.714z" style="fill:url(#q);fill-opacity:1;stroke:none" transform="matrix(-.02772 -.02821 .03047 -.02567 88.911 95.89)"/><path d="M237.143 545.934c0 74.558-60.442 135-135 135-74.559 0-135-60.442-135-135 0-74.559 60.441-135 135-135 74.558 0 135 60.441 135 135z" style="opacity:.87614698;fill:url(#C);fill-opacity:1;stroke:none" transform="matrix(.04119 0 0 .03814 88.212 48.181)"/><path d="M237.143 545.934c0 74.558-60.442 135-135 135-74.559 0-135-60.442-135-135 0-74.559 60.441-135 135-135 74.558 0 135 60.441 135 135z" style="fill:url(#D);fill-opacity:1;stroke:none" transform="matrix(.05996 -.01817 .0266 .04096 30.931 36.746)"/><path d="M605.714 535.22c0 124.658-101.055 225.714-225.714 225.714-124.659 0-225.714-101.056-225.714-225.715 0-124.658 101.055-225.714 225.714-225.714 124.659 0 225.714 101.056 225.714 225.714z" style="fill:url(#E);fill-opacity:1;stroke:none" transform="matrix(-.02772 -.02821 .03047 -.02567 45.601 73.608)"/><path d="M237.143 545.934c0 74.558-60.442 135-135 135-74.559 0-135-60.442-135-135 0-74.559 60.441-135 135-135 74.558 0 135 60.441 135 135z" style="opacity:.87614698;fill:url(#F);fill-opacity:1;stroke:none" transform="matrix(.04119 0 0 .03814 44.902 25.899)"/><path d="M237.143 545.934c0 74.558-60.442 135-135 135-74.559 0-135-60.442-135-135 0-74.559 60.441-135 135-135 74.558 0 135 60.441 135 135z" style="fill:url(#G);fill-opacity:1;stroke:none" transform="matrix(.0623 -.01888 .02764 .04256 105.1 1.54)"/><path d="M605.714 535.22c0 124.658-101.055 225.714-225.714 225.714-124.659 0-225.714-101.056-225.714-225.715 0-124.658 101.055-225.714 225.714-225.714 124.659 0 225.714 101.056 225.714 225.714z" style="fill:url(#H);fill-opacity:1;stroke:none" transform="matrix(-.0288 -.02932 .03166 -.02667 120.345 39.844)"/><path d="M237.143 545.934c0 74.558-60.442 135-135 135-74.559 0-135-60.442-135-135 0-74.559 60.441-135 135-135 74.558 0 135 60.441 135 135z" style="opacity:.87614698;fill:url(#I);fill-opacity:1;stroke:none" transform="matrix(.0428 0 0 .03964 119.619 -9.733)"/><path d="M150.936 2.494v17.892c.863.319 2.28.258 4.694-1.553.661-.509 2.222-1.288 3.635-1.447h.035c1.869 0 3.533 1.098 4.693 2.788 1.16 1.69 1.835 3.974 1.835 6.493 0 2.52-.674 4.812-1.835 6.493-1.16 1.682-2.826 2.753-4.693 2.753-.651-.017-1.332-.272-1.976-.565a28.798 28.798 0 0 1-1.623-.812c-.025-.017-.049-.022-.07-.036-2.415-1.81-3.832-1.871-4.694-1.552v17.644h13.516a.49.49 0 0 1 .423.247c.6 1.201.484 3.112-1.553 5.858l-.035.07c-.213.4-.518.949-.777 1.518-.27.596-.487 1.205-.494 1.588 0 1.5.895 2.884 2.4 3.917s3.619 1.694 5.964 1.694 4.467-.661 5.963-1.694c1.485-1.024 2.351-2.395 2.365-3.882v-.036c-.136-1.108-.952-2.69-1.27-3.105-2.09-2.787-2.155-4.725-1.553-5.929a.48.48 0 0 1 .423-.247h20.467V9.268a6.76 6.76 0 0 0-6.775-6.775z" style="color:#000;fill:#999;fill-opacity:1;fill-rule:nonzero;stroke:none;stroke-width:2;marker:none;visibility:visible;display:inline;overflow:visible;enable-background:accumulate"/></svg>