<svg xmlns="http://www.w3.org/2000/svg" xmlns:xlink="http://www.w3.org/1999/xlink" width="640" height="640" version="1.0"><desc>Picture of a blue sphere (circle with 3D highlighting)</desc><defs><radialGradient xlink:href="#a" id="f" cx="102.143" cy="545.934" r="135" fx="102.143" fy="545.934" gradientTransform="matrix(.54636 0 0 .44695 -116.493 666.159)" gradientUnits="userSpaceOnUse"/><radialGradient xlink:href="#b" id="h" cx="102.143" cy="545.934" r="135" fx="102.143" fy="545.934" gradientTransform="translate(353.625 505.643)scale(.35671)" gradientUnits="userSpaceOnUse"/><radialGradient xlink:href="#a" id="i" cx="102.143" cy="545.934" r="135" fx="102.143" fy="545.934" gradientTransform="matrix(.54636 0 0 .44695 -116.493 666.159)" gradientUnits="userSpaceOnUse"/><radialGradient xlink:href="#b" id="k" cx="102.143" cy="545.934" r="135" fx="102.143" fy="545.934" gradientTransform="translate(353.625 505.643)scale(.35671)" gradientUnits="userSpaceOnUse"/><radialGradient xlink:href="#a" id="l" cx="102.143" cy="545.934" r="135" fx="102.143" fy="545.934" gradientTransform="matrix(.54636 0 0 .44695 -116.493 666.159)" gradientUnits="userSpaceOnUse"/><radialGradient xlink:href="#b" id="n" cx="102.143" cy="545.934" r="135" fx="102.143" fy="545.934" gradientTransform="translate(353.625 505.643)scale(.35671)" gradientUnits="userSpaceOnUse"/><radialGradient xlink:href="#a" id="o" cx="102.143" cy="545.934" r="135" fx="102.143" fy="545.934" gradientTransform="matrix(.54636 0 0 .44695 -116.493 666.159)" gradientUnits="userSpaceOnUse"/><radialGradient xlink:href="#b" id="q" cx="102.143" cy="545.934" r="135" fx="102.143" fy="545.934" gradientTransform="translate(353.625 505.643)scale(.35671)" gradientUnits="userSpaceOnUse"/><radialGradient xlink:href="#a" id="r" cx="102.143" cy="545.934" r="135" fx="102.143" fy="545.934" gradientTransform="matrix(.54636 0 0 .44695 -116.493 666.159)" gradientUnits="userSpaceOnUse"/><radialGradient xlink:href="#b" id="t" cx="102.143" cy="545.934" r="135" fx="102.143" fy="545.934" gradientTransform="translate(353.625 505.643)scale(.35671)" gradientUnits="userSpaceOnUse"/><radialGradient xlink:href="#a" id="u" cx="102.143" cy="545.934" r="135" fx="102.143" fy="545.934" gradientTransform="matrix(.54636 0 0 .44695 14.059 407.686)" gradientUnits="userSpaceOnUse"/><radialGradient xlink:href="#b" id="w" cx="102.143" cy="545.934" r="135" fx="102.143" fy="545.934" gradientTransform="translate(344.482 243.548)scale(.35671)" gradientUnits="userSpaceOnUse"/><linearGradient id="e"><stop offset="0" style="stop-color:#770900;stop-opacity:1"/><stop offset=".5" style="stop-color:#da101b;stop-opacity:1"/><stop offset=".75" style="stop-color:#d2400f;stop-opacity:1"/><stop offset=".938" style="stop-color:#d44316;stop-opacity:.614583"/><stop offset="1" style="stop-color:#c30000;stop-opacity:.21875"/></linearGradient><linearGradient id="b"><stop offset="0" style="stop-color:#fff;stop-opacity:1"/><stop offset="1" style="stop-color:#fff;stop-opacity:0"/></linearGradient><linearGradient id="d"><stop offset="0" style="stop-color:#081074;stop-opacity:1"/><stop offset=".5" style="stop-color:#5873c2;stop-opacity:1"/><stop offset=".75" style="stop-color:#0f99d2;stop-opacity:1"/><stop offset=".938" style="stop-color:#1660d4;stop-opacity:.6156863"/><stop offset="1" style="stop-color:#414cf6;stop-opacity:.21568628"/></linearGradient><linearGradient id="a"><stop offset="0" style="stop-color:#999;stop-opacity:1"/><stop offset="1" style="stop-color:#999;stop-opacity:0"/></linearGradient><linearGradient xlink:href="#d" id="g" x1="154.286" x2="605.714" y1="535.219" y2="535.219" gradientTransform="translate(-946.083 -374.467)scale(.35671)" gradientUnits="userSpaceOnUse"/><linearGradient xlink:href="#d" id="j" x1="154.286" x2="605.714" y1="535.219" y2="535.219" gradientTransform="translate(-946.083 -374.467)scale(.35671)" gradientUnits="userSpaceOnUse"/><linearGradient xlink:href="#d" id="m" x1="154.286" x2="605.714" y1="535.219" y2="535.219" gradientTransform="translate(-946.083 -374.467)scale(.35671)" gradientUnits="userSpaceOnUse"/><linearGradient xlink:href="#d" id="p" x1="154.286" x2="605.714" y1="535.219" y2="535.219" gradientTransform="translate(-946.083 -374.467)scale(.35671)" gradientUnits="userSpaceOnUse"/><linearGradient xlink:href="#d" id="s" x1="154.286" x2="605.714" y1="535.219" y2="535.219" gradientTransform="translate(-946.083 -374.467)scale(.35671)" gradientUnits="userSpaceOnUse"/><linearGradient xlink:href="#e" id="v" x1="154.286" x2="605.714" y1="535.219" y2="535.219" gradientTransform="translate(-746.061 -204.852)scale(.35671)" gradientUnits="userSpaceOnUse"/></defs><ellipse cx="320" cy="320" rx="313.117" ry="313.837" style="opacity:.98999999;fill:#ff7200;fill-opacity:1;fill-rule:evenodd;stroke:none;stroke-width:5;stroke-linecap:round;stroke-linejoin:round;stroke-miterlimit:4;stroke-dasharray:none;stroke-dashoffset:0;stroke-opacity:1"/><text xml:space="preserve" x="363.174" y="479.119" style="font-style:normal;font-variant:normal;font-weight:400;font-stretch:normal;font-size:26.15585899px;line-height:0%;font-family:Busorama;-inkscape-font-specification:Busorama;text-align:center;writing-mode:lr-tb;text-anchor:middle;fill:snow;fill-opacity:1;fill-rule:evenodd;stroke:#fff;stroke-width:2.17965436;stroke-miterlimit:4;stroke-dasharray:none;stroke-opacity:1" transform="scale(.88915 1.12467)"><tspan x="363.174" y="479.119" style="font-size:223.96842957px;line-height:1.25;stroke-width:2.17965436">Files</tspan></text><path d="M359.057 451.525C278.66 554.663 182.892 585.285 139.39 583.828" style="fill:none;stroke:#0a3f6b;stroke-width:16.77659798;stroke-linecap:butt;stroke-linejoin:miter;stroke-miterlimit:4;stroke-dasharray:none;stroke-opacity:1" transform="matrix(.39738 0 0 .38128 159.926 28.105)"/><path d="M531.277 144.515C308.675 311.211 195.699 349.65 127.088 336.185" style="fill:none;stroke:#184086;stroke-width:16.77659798;stroke-linecap:butt;stroke-linejoin:miter;stroke-miterlimit:4;stroke-dasharray:none;stroke-opacity:1" transform="matrix(.39738 0 0 .38128 159.926 28.105)"/><path d="M678.894 454.918c-83.214-40.08-155.338-55.77-152.89-307.01-49.17 99.21-83.193 191.11-166.947 307.01-39.423 146.078-20.947 201.343 14.06 230.681" style="fill:none;stroke:#053f9d;stroke-width:16.77659798;stroke-linecap:butt;stroke-linejoin:miter;stroke-miterlimit:4;stroke-dasharray:none;stroke-opacity:1" transform="matrix(.39738 0 0 .38128 159.926 28.105)"/><g transform="matrix(.25134 0 0 .23276 204.212 118.405)"><ellipse cx="-60.686" cy="910.162" rx="73.759" ry="60.338" style="fill:url(#f);fill-opacity:1;stroke:none;stroke-width:.49416181" transform="matrix(.95041 -.31099 .51542 .85694 0 0)"/><circle cx="-810.533" cy="-183.549" r="80.514" style="fill:url(#g);fill-opacity:1;stroke:none;stroke-width:.35670954" transform="rotate(-132.295)"/><circle cx="390.061" cy="700.383" r="48.156" style="opacity:.87614698;fill:url(#h);fill-opacity:1;stroke:none;stroke-width:.35670954"/></g><g transform="matrix(.25134 0 0 .23276 325.338 33.685)"><ellipse cx="-60.686" cy="910.162" rx="73.759" ry="60.338" style="fill:url(#i);fill-opacity:1;stroke:none;stroke-width:.49416181" transform="matrix(.95041 -.31099 .51542 .85694 0 0)"/><circle cx="-810.533" cy="-183.549" r="80.514" style="fill:url(#j);fill-opacity:1;stroke:none;stroke-width:.35670954" transform="rotate(-132.295)"/><circle cx="390.061" cy="700.383" r="48.156" style="opacity:.87614698;fill:url(#k);fill-opacity:1;stroke:none;stroke-width:.35670954"/></g><g transform="matrix(.25134 0 0 .23276 112.346 80.895)"><ellipse cx="-60.686" cy="910.162" rx="73.759" ry="60.338" style="fill:url(#l);fill-opacity:1;stroke:none;stroke-width:.49416181" transform="matrix(.95041 -.31099 .51542 .85694 0 0)"/><circle cx="-810.533" cy="-183.549" r="80.514" style="fill:url(#m);fill-opacity:1;stroke:none;stroke-width:.35670954" transform="rotate(-132.295)"/><circle cx="390.061" cy="700.383" r="48.156" style="opacity:.87614698;fill:url(#n);fill-opacity:1;stroke:none;stroke-width:.35670954"/></g><g transform="matrix(.25134 0 0 .23276 198.94 33.038)"><ellipse cx="-60.686" cy="910.162" rx="73.759" ry="60.338" style="fill:url(#o);fill-opacity:1;stroke:none;stroke-width:.49416181" transform="matrix(.95041 -.31099 .51542 .85694 0 0)"/><circle cx="-810.533" cy="-183.549" r="80.514" style="fill:url(#p);fill-opacity:1;stroke:none;stroke-width:.35670954" transform="rotate(-132.295)"/><circle cx="390.061" cy="700.383" r="48.156" style="opacity:.87614698;fill:url(#q);fill-opacity:1;stroke:none;stroke-width:.35670954"/></g><g transform="matrix(.25134 0 0 .23276 104.665 -15.465)"><ellipse cx="-60.686" cy="910.162" rx="73.759" ry="60.338" style="fill:url(#r);fill-opacity:1;stroke:none;stroke-width:.49416181" transform="matrix(.95041 -.31099 .51542 .85694 0 0)"/><circle cx="-810.533" cy="-183.549" r="80.514" style="fill:url(#s);fill-opacity:1;stroke:none;stroke-width:.35670954" transform="rotate(-132.295)"/><circle cx="390.061" cy="700.383" r="48.156" style="opacity:.87614698;fill:url(#t);fill-opacity:1;stroke:none;stroke-width:.35670954"/></g><g transform="matrix(.26119 0 0 .24188 266.21 -34.24)"><ellipse cx="69.866" cy="651.689" rx="73.759" ry="60.338" style="fill:url(#u);fill-opacity:1;stroke:none;stroke-width:.49416181" transform="matrix(.95041 -.31099 .51542 .85694 0 0)"/><circle cx="-610.512" cy="-13.935" r="80.514" style="fill:url(#v);fill-opacity:1;stroke:none;stroke-width:.35670954" transform="rotate(-132.295)"/><circle cx="380.918" cy="438.288" r="48.156" style="opacity:.87614698;fill:url(#w);fill-opacity:1;stroke:none;stroke-width:.35670954"/></g><path d="M477.218 176.45v32.059c1.545.572 4.084.462 8.41-2.782 1.185-.912 3.981-2.308 6.513-2.593a.86.86 0 0 1 .063 0c3.348 0 6.332 1.968 8.41 4.996 2.078 3.028 3.288 7.12 3.288 11.634 0 4.515-1.209 8.622-3.288 11.635-2.08 3.013-5.065 4.932-8.41 4.932-1.167-.03-2.386-.487-3.54-1.011-1.155-.525-2.228-1.095-2.91-1.455-.043-.03-.086-.04-.126-.065-4.326-3.244-6.865-3.353-8.41-2.782v31.617h24.218c.308 0 .612.172.759.442 1.076 2.152.867 5.576-2.782 10.496l-.064.127c-.38.716-.928 1.7-1.39 2.72-.485 1.066-.874 2.16-.886 2.845 0 2.686 1.603 5.168 4.3 7.018 2.697 1.852 6.484 3.036 10.686 3.036s8.006-1.185 10.686-3.036c2.66-1.835 4.213-4.29 4.237-6.955-.002-.03.002-.046 0-.065-.243-1.985-1.705-4.822-2.277-5.565-3.745-4.993-3.86-8.466-2.782-10.622a.862.862 0 0 1 .759-.443h36.675v-74.045c0-6.726-5.415-12.14-12.14-12.14z" style="color:#000;display:inline;overflow:visible;visibility:visible;fill:#999;fill-opacity:1;fill-rule:nonzero;stroke:none;stroke-width:3.58372521;marker:none;enable-background:accumulate"/></svg>